<mxfile host="drawio-plugin" modified="2022-08-11T16:54:54.327Z" agent="5.0 (Windows NT 6.2; Win64; x64) AppleWebKit/537.36 (KHTML, like Gecko) Chrome/89.0.4389.114 Safari/537.36" etag="t09r5A_fJrDUpkZeJ-y2" version="15.5.4" type="embed"><diagram id="D4oyk8fNTiGRm2SQI8vi" name="Page-1"><mxGraphModel dx="776" dy="-768" grid="1" gridSize="5" guides="1" tooltips="1" connect="1" arrows="1" fold="1" page="1" pageScale="1" pageWidth="827" pageHeight="1169" math="1" shadow="0"><root><mxCell id="0"/><mxCell id="1" parent="0"/><mxCell id="244" value="" style="endArrow=oval;html=1;endFill=1;dashed=1;" parent="1" edge="1"><mxGeometry width="50" height="50" relative="1" as="geometry"><mxPoint x="139.99999999999977" y="1460" as="sourcePoint"/><mxPoint x="129.99999999999977" y="1450" as="targetPoint"/></mxGeometry></mxCell><mxCell id="245" value="" style="endArrow=oval;html=1;endFill=1;dashed=1;" parent="1" edge="1"><mxGeometry width="50" height="50" relative="1" as="geometry"><mxPoint x="159.99999999999977" y="1480" as="sourcePoint"/><mxPoint x="139.99999999999977" y="1460" as="targetPoint"/></mxGeometry></mxCell><mxCell id="246" value="" style="endArrow=oval;html=1;endFill=1;" parent="1" edge="1"><mxGeometry width="50" height="50" relative="1" as="geometry"><mxPoint x="199.99999999999977" y="1519.9999999999998" as="sourcePoint"/><mxPoint x="159.99999999999977" y="1480" as="targetPoint"/></mxGeometry></mxCell><mxCell id="247" value="" style="endArrow=oval;html=1;endFill=1;dashed=1;" parent="1" edge="1"><mxGeometry width="50" height="50" relative="1" as="geometry"><mxPoint x="159.99999999999977" y="1480" as="sourcePoint"/><mxPoint x="179.99999999999977" y="1460" as="targetPoint"/></mxGeometry></mxCell><mxCell id="248" value="" style="endArrow=oval;html=1;endFill=1;dashed=1;" parent="1" edge="1"><mxGeometry width="50" height="50" relative="1" as="geometry"><mxPoint x="139.99999999999977" y="1460" as="sourcePoint"/><mxPoint x="149.99999999999977" y="1450" as="targetPoint"/></mxGeometry></mxCell><mxCell id="249" value="" style="endArrow=oval;html=1;endFill=1;dashed=1;" parent="1" edge="1"><mxGeometry width="50" height="50" relative="1" as="geometry"><mxPoint x="179.99999999999977" y="1460" as="sourcePoint"/><mxPoint x="169.99999999999977" y="1450" as="targetPoint"/></mxGeometry></mxCell><mxCell id="250" value="" style="endArrow=oval;html=1;endFill=1;dashed=1;" parent="1" edge="1"><mxGeometry width="50" height="50" relative="1" as="geometry"><mxPoint x="179.99999999999977" y="1460" as="sourcePoint"/><mxPoint x="189.99999999999977" y="1450" as="targetPoint"/></mxGeometry></mxCell><mxCell id="251" value="" style="endArrow=oval;dashed=1;html=1;endFill=1;" parent="1" edge="1"><mxGeometry width="50" height="50" relative="1" as="geometry"><mxPoint x="219.99999999999977" y="1460" as="sourcePoint"/><mxPoint x="209.99999999999977" y="1450" as="targetPoint"/></mxGeometry></mxCell><mxCell id="252" value="" style="endArrow=oval;dashed=1;html=1;endFill=1;" parent="1" edge="1"><mxGeometry width="50" height="50" relative="1" as="geometry"><mxPoint x="239.99999999999977" y="1480" as="sourcePoint"/><mxPoint x="219.99999999999977" y="1460" as="targetPoint"/></mxGeometry></mxCell><mxCell id="253" value="" style="endArrow=oval;html=1;endFill=1;strokeColor=#990000;" parent="1" edge="1"><mxGeometry width="50" height="50" relative="1" as="geometry"><mxPoint x="239.99999999999977" y="1480" as="sourcePoint"/><mxPoint x="259.9999999999998" y="1460" as="targetPoint"/></mxGeometry></mxCell><mxCell id="254" value="" style="endArrow=oval;dashed=1;html=1;endFill=1;" parent="1" edge="1"><mxGeometry width="50" height="50" relative="1" as="geometry"><mxPoint x="219.99999999999977" y="1460" as="sourcePoint"/><mxPoint x="229.99999999999977" y="1450" as="targetPoint"/></mxGeometry></mxCell><mxCell id="257" value="" style="endArrow=oval;html=1;endFill=1;" parent="1" edge="1"><mxGeometry width="50" height="50" relative="1" as="geometry"><mxPoint x="199.99999999999977" y="1519.9999999999998" as="sourcePoint"/><mxPoint x="239.99999999999977" y="1480" as="targetPoint"/></mxGeometry></mxCell><mxCell id="258" value="" style="endArrow=oval;html=1;endFill=1;" parent="1" edge="1"><mxGeometry width="50" height="50" relative="1" as="geometry"><mxPoint x="119.99999999999977" y="1599.9999999999998" as="sourcePoint"/><mxPoint x="199.99999999999977" y="1519.9999999999998" as="targetPoint"/></mxGeometry></mxCell><mxCell id="260" value="" style="endArrow=oval;html=1;endFill=1;strokeColor=#000000;dashed=1;" parent="1" edge="1"><mxGeometry width="50" height="50" relative="1" as="geometry"><mxPoint x="534.9999999999998" y="2010" as="sourcePoint"/><mxPoint x="524.9999999999998" y="2000" as="targetPoint"/></mxGeometry></mxCell><mxCell id="261" value="" style="endArrow=oval;html=1;endFill=1;strokeColor=#000000;dashed=1;" parent="1" edge="1"><mxGeometry width="50" height="50" relative="1" as="geometry"><mxPoint x="554.9999999999998" y="2030" as="sourcePoint"/><mxPoint x="534.9999999999998" y="2010" as="targetPoint"/></mxGeometry></mxCell><mxCell id="262" value="" style="endArrow=oval;html=1;endFill=1;" parent="1" edge="1"><mxGeometry width="50" height="50" relative="1" as="geometry"><mxPoint x="594.9999999999998" y="2070" as="sourcePoint"/><mxPoint x="554.9999999999998" y="2030" as="targetPoint"/></mxGeometry></mxCell><mxCell id="263" value="" style="endArrow=oval;html=1;endFill=1;strokeColor=#000000;dashed=1;" parent="1" edge="1"><mxGeometry width="50" height="50" relative="1" as="geometry"><mxPoint x="554.9999999999998" y="2030" as="sourcePoint"/><mxPoint x="574.9999999999998" y="2010" as="targetPoint"/></mxGeometry></mxCell><mxCell id="264" value="" style="endArrow=oval;html=1;endFill=1;strokeColor=#000000;dashed=1;" parent="1" edge="1"><mxGeometry width="50" height="50" relative="1" as="geometry"><mxPoint x="534.9999999999998" y="2010" as="sourcePoint"/><mxPoint x="544.9999999999998" y="2000" as="targetPoint"/></mxGeometry></mxCell><mxCell id="265" value="" style="endArrow=oval;html=1;endFill=1;strokeColor=#000000;dashed=1;" parent="1" edge="1"><mxGeometry width="50" height="50" relative="1" as="geometry"><mxPoint x="574.9999999999998" y="2010" as="sourcePoint"/><mxPoint x="564.9999999999998" y="2000" as="targetPoint"/></mxGeometry></mxCell><mxCell id="266" value="" style="endArrow=oval;html=1;endFill=1;strokeColor=#000000;dashed=1;" parent="1" edge="1"><mxGeometry width="50" height="50" relative="1" as="geometry"><mxPoint x="574.9999999999998" y="2010" as="sourcePoint"/><mxPoint x="584.9999999999998" y="2000" as="targetPoint"/></mxGeometry></mxCell><mxCell id="269" value="" style="endArrow=oval;html=1;endFill=1;strokeColor=#000000;" parent="1" edge="1"><mxGeometry width="50" height="50" relative="1" as="geometry"><mxPoint x="634.9999999999998" y="2030" as="sourcePoint"/><mxPoint x="654.9999999999998" y="2010" as="targetPoint"/></mxGeometry></mxCell><mxCell id="273" value="" style="endArrow=oval;html=1;endFill=1;strokeColor=#990000;" parent="1" edge="1"><mxGeometry width="50" height="50" relative="1" as="geometry"><mxPoint x="594.9999999999998" y="2070" as="sourcePoint"/><mxPoint x="634.9999999999998" y="2030" as="targetPoint"/></mxGeometry></mxCell><mxCell id="274" value="" style="endArrow=oval;html=1;endFill=1;" parent="1" edge="1"><mxGeometry width="50" height="50" relative="1" as="geometry"><mxPoint x="514.9999999999998" y="2150" as="sourcePoint"/><mxPoint x="594.9999999999998" y="2070" as="targetPoint"/></mxGeometry></mxCell><mxCell id="312" value="случай а" style="text;html=1;align=center;verticalAlign=middle;resizable=0;points=[];autosize=1;strokeColor=none;fillColor=none;" parent="1" vertex="1"><mxGeometry x="40" y="1500" width="60" height="20" as="geometry"/></mxCell><mxCell id="315" value="" style="ellipse;whiteSpace=wrap;html=1;fillColor=none;strokeColor=#4D9900;" parent="1" vertex="1"><mxGeometry x="230" y="1470" width="20" height="20" as="geometry"/></mxCell><mxCell id="329" value="" style="ellipse;whiteSpace=wrap;html=1;fillColor=none;strokeColor=#4D9900;" parent="1" vertex="1"><mxGeometry x="585" y="2060" width="20" height="20" as="geometry"/></mxCell><mxCell id="330" value="" style="endArrow=oval;html=1;endFill=1;dashed=1;" parent="1" edge="1"><mxGeometry width="50" height="50" relative="1" as="geometry"><mxPoint x="339.9999999999998" y="1460" as="sourcePoint"/><mxPoint x="329.9999999999998" y="1450" as="targetPoint"/></mxGeometry></mxCell><mxCell id="331" value="" style="endArrow=oval;html=1;endFill=1;dashed=1;" parent="1" edge="1"><mxGeometry width="50" height="50" relative="1" as="geometry"><mxPoint x="359.9999999999998" y="1480" as="sourcePoint"/><mxPoint x="339.9999999999998" y="1460" as="targetPoint"/></mxGeometry></mxCell><mxCell id="332" value="" style="endArrow=oval;html=1;endFill=1;" parent="1" edge="1"><mxGeometry width="50" height="50" relative="1" as="geometry"><mxPoint x="399.9999999999998" y="1520" as="sourcePoint"/><mxPoint x="359.9999999999998" y="1480" as="targetPoint"/></mxGeometry></mxCell><mxCell id="333" value="" style="endArrow=oval;html=1;endFill=1;dashed=1;" parent="1" edge="1"><mxGeometry width="50" height="50" relative="1" as="geometry"><mxPoint x="359.9999999999998" y="1480" as="sourcePoint"/><mxPoint x="379.9999999999998" y="1460" as="targetPoint"/></mxGeometry></mxCell><mxCell id="334" value="" style="endArrow=oval;html=1;endFill=1;dashed=1;" parent="1" edge="1"><mxGeometry width="50" height="50" relative="1" as="geometry"><mxPoint x="339.9999999999998" y="1460" as="sourcePoint"/><mxPoint x="349.9999999999998" y="1450" as="targetPoint"/></mxGeometry></mxCell><mxCell id="335" value="" style="endArrow=oval;html=1;endFill=1;dashed=1;" parent="1" edge="1"><mxGeometry width="50" height="50" relative="1" as="geometry"><mxPoint x="379.9999999999998" y="1460" as="sourcePoint"/><mxPoint x="369.9999999999998" y="1450" as="targetPoint"/></mxGeometry></mxCell><mxCell id="336" value="" style="endArrow=oval;html=1;endFill=1;dashed=1;" parent="1" edge="1"><mxGeometry width="50" height="50" relative="1" as="geometry"><mxPoint x="379.9999999999998" y="1460" as="sourcePoint"/><mxPoint x="389.9999999999998" y="1450" as="targetPoint"/></mxGeometry></mxCell><mxCell id="338" value="" style="endArrow=oval;html=1;endFill=1;" parent="1" edge="1"><mxGeometry width="50" height="50" relative="1" as="geometry"><mxPoint x="439.9999999999998" y="1480" as="sourcePoint"/><mxPoint x="419.9999999999998" y="1460" as="targetPoint"/></mxGeometry></mxCell><mxCell id="341" value="" style="endArrow=oval;html=1;endFill=1;" parent="1" edge="1"><mxGeometry width="50" height="50" relative="1" as="geometry"><mxPoint x="399.9999999999998" y="1520" as="sourcePoint"/><mxPoint x="439.9999999999998" y="1480" as="targetPoint"/></mxGeometry></mxCell><mxCell id="342" value="" style="endArrow=oval;html=1;endFill=1;" parent="1" edge="1"><mxGeometry width="50" height="50" relative="1" as="geometry"><mxPoint x="319.9999999999998" y="1600" as="sourcePoint"/><mxPoint x="399.9999999999998" y="1520" as="targetPoint"/></mxGeometry></mxCell><mxCell id="343" value="" style="ellipse;whiteSpace=wrap;html=1;fillColor=none;strokeColor=#4D9900;" parent="1" vertex="1"><mxGeometry x="430" y="1470" width="20" height="20" as="geometry"/></mxCell><mxCell id="344" value="" style="endArrow=oval;html=1;endFill=1;dashed=1;" parent="1" edge="1"><mxGeometry width="50" height="50" relative="1" as="geometry"><mxPoint x="499.9999999999998" y="1460" as="sourcePoint"/><mxPoint x="489.9999999999998" y="1450" as="targetPoint"/></mxGeometry></mxCell><mxCell id="345" value="" style="endArrow=oval;html=1;endFill=1;dashed=1;dashPattern=1 1;" parent="1" edge="1"><mxGeometry width="50" height="50" relative="1" as="geometry"><mxPoint x="519.9999999999998" y="1480" as="sourcePoint"/><mxPoint x="499.9999999999998" y="1460" as="targetPoint"/></mxGeometry></mxCell><mxCell id="346" value="" style="endArrow=oval;html=1;endFill=1;" parent="1" edge="1"><mxGeometry width="50" height="50" relative="1" as="geometry"><mxPoint x="559.9999999999998" y="1520" as="sourcePoint"/><mxPoint x="519.9999999999998" y="1480" as="targetPoint"/></mxGeometry></mxCell><mxCell id="347" value="" style="endArrow=oval;html=1;endFill=1;dashed=1;dashPattern=1 1;" parent="1" edge="1"><mxGeometry width="50" height="50" relative="1" as="geometry"><mxPoint x="519.9999999999998" y="1480" as="sourcePoint"/><mxPoint x="539.9999999999998" y="1460" as="targetPoint"/></mxGeometry></mxCell><mxCell id="348" value="" style="endArrow=oval;html=1;endFill=1;dashed=1;" parent="1" edge="1"><mxGeometry width="50" height="50" relative="1" as="geometry"><mxPoint x="499.9999999999998" y="1460" as="sourcePoint"/><mxPoint x="509.9999999999998" y="1450" as="targetPoint"/></mxGeometry></mxCell><mxCell id="349" value="" style="endArrow=oval;html=1;endFill=1;dashed=1;" parent="1" edge="1"><mxGeometry width="50" height="50" relative="1" as="geometry"><mxPoint x="539.9999999999998" y="1460" as="sourcePoint"/><mxPoint x="529.9999999999998" y="1450" as="targetPoint"/></mxGeometry></mxCell><mxCell id="350" value="" style="endArrow=oval;html=1;endFill=1;dashed=1;" parent="1" edge="1"><mxGeometry width="50" height="50" relative="1" as="geometry"><mxPoint x="539.9999999999998" y="1460" as="sourcePoint"/><mxPoint x="549.9999999999998" y="1450" as="targetPoint"/></mxGeometry></mxCell><mxCell id="352" value="" style="endArrow=oval;html=1;endFill=1;" parent="1" edge="1"><mxGeometry width="50" height="50" relative="1" as="geometry"><mxPoint x="599.9999999999998" y="1480" as="sourcePoint"/><mxPoint x="579.9999999999998" y="1460" as="targetPoint"/></mxGeometry></mxCell><mxCell id="353" value="" style="endArrow=oval;html=1;endFill=1;" parent="1" edge="1"><mxGeometry width="50" height="50" relative="1" as="geometry"><mxPoint x="579.9999999999998" y="1460" as="sourcePoint"/><mxPoint x="589.9999999999998" y="1450" as="targetPoint"/></mxGeometry></mxCell><mxCell id="354" value="" style="endArrow=oval;html=1;endFill=1;" parent="1" edge="1"><mxGeometry width="50" height="50" relative="1" as="geometry"><mxPoint x="559.9999999999998" y="1520" as="sourcePoint"/><mxPoint x="599.9999999999998" y="1480" as="targetPoint"/></mxGeometry></mxCell><mxCell id="355" value="" style="endArrow=oval;html=1;endFill=1;" parent="1" edge="1"><mxGeometry width="50" height="50" relative="1" as="geometry"><mxPoint x="479.9999999999998" y="1600" as="sourcePoint"/><mxPoint x="559.9999999999998" y="1520" as="targetPoint"/></mxGeometry></mxCell><mxCell id="356" value="" style="ellipse;whiteSpace=wrap;html=1;fillColor=none;strokeColor=#4D9900;" parent="1" vertex="1"><mxGeometry x="590" y="1470" width="20" height="20" as="geometry"/></mxCell><mxCell id="357" value="" style="endArrow=oval;html=1;endFill=1;dashed=1;" parent="1" edge="1"><mxGeometry width="50" height="50" relative="1" as="geometry"><mxPoint x="659.9999999999998" y="1460" as="sourcePoint"/><mxPoint x="649.9999999999998" y="1450" as="targetPoint"/></mxGeometry></mxCell><mxCell id="358" value="" style="endArrow=oval;html=1;endFill=1;dashed=1;dashPattern=1 1;" parent="1" edge="1"><mxGeometry width="50" height="50" relative="1" as="geometry"><mxPoint x="679.9999999999998" y="1480" as="sourcePoint"/><mxPoint x="659.9999999999998" y="1460" as="targetPoint"/></mxGeometry></mxCell><mxCell id="359" value="" style="endArrow=oval;html=1;endFill=1;" parent="1" edge="1"><mxGeometry width="50" height="50" relative="1" as="geometry"><mxPoint x="719.9999999999998" y="1520" as="sourcePoint"/><mxPoint x="679.9999999999998" y="1480" as="targetPoint"/></mxGeometry></mxCell><mxCell id="360" value="" style="endArrow=oval;html=1;endFill=1;dashed=1;dashPattern=1 1;" parent="1" edge="1"><mxGeometry width="50" height="50" relative="1" as="geometry"><mxPoint x="679.9999999999998" y="1480" as="sourcePoint"/><mxPoint x="699.9999999999998" y="1460" as="targetPoint"/></mxGeometry></mxCell><mxCell id="361" value="" style="endArrow=oval;html=1;endFill=1;dashed=1;" parent="1" edge="1"><mxGeometry width="50" height="50" relative="1" as="geometry"><mxPoint x="659.9999999999998" y="1460" as="sourcePoint"/><mxPoint x="669.9999999999998" y="1450" as="targetPoint"/></mxGeometry></mxCell><mxCell id="362" value="" style="endArrow=oval;html=1;endFill=1;dashed=1;" parent="1" edge="1"><mxGeometry width="50" height="50" relative="1" as="geometry"><mxPoint x="699.9999999999998" y="1460" as="sourcePoint"/><mxPoint x="689.9999999999998" y="1450" as="targetPoint"/></mxGeometry></mxCell><mxCell id="363" value="" style="endArrow=oval;html=1;endFill=1;dashed=1;" parent="1" edge="1"><mxGeometry width="50" height="50" relative="1" as="geometry"><mxPoint x="699.9999999999998" y="1460" as="sourcePoint"/><mxPoint x="709.9999999999998" y="1450" as="targetPoint"/></mxGeometry></mxCell><mxCell id="364" value="" style="endArrow=oval;html=1;endFill=1;" parent="1" edge="1"><mxGeometry width="50" height="50" relative="1" as="geometry"><mxPoint x="760" y="1480" as="sourcePoint"/><mxPoint x="739.9999999999998" y="1460" as="targetPoint"/></mxGeometry></mxCell><mxCell id="365" value="" style="endArrow=oval;html=1;endFill=1;" parent="1" edge="1"><mxGeometry width="50" height="50" relative="1" as="geometry"><mxPoint x="739.9999999999998" y="1460" as="sourcePoint"/><mxPoint x="730" y="1450" as="targetPoint"/></mxGeometry></mxCell><mxCell id="366" value="" style="endArrow=oval;html=1;endFill=1;" parent="1" edge="1"><mxGeometry width="50" height="50" relative="1" as="geometry"><mxPoint x="719.9999999999998" y="1520" as="sourcePoint"/><mxPoint x="760" y="1480" as="targetPoint"/></mxGeometry></mxCell><mxCell id="367" value="" style="endArrow=oval;html=1;endFill=1;" parent="1" edge="1"><mxGeometry width="50" height="50" relative="1" as="geometry"><mxPoint x="639.9999999999998" y="1600" as="sourcePoint"/><mxPoint x="719.9999999999998" y="1520" as="targetPoint"/></mxGeometry></mxCell><mxCell id="368" value="" style="ellipse;whiteSpace=wrap;html=1;fillColor=none;strokeColor=#4D9900;" parent="1" vertex="1"><mxGeometry x="750" y="1470" width="20" height="20" as="geometry"/></mxCell><mxCell id="374" value="" style="endArrow=oval;html=1;endFill=1;" parent="1" edge="1"><mxGeometry width="50" height="50" relative="1" as="geometry"><mxPoint x="754.9999999999998" y="2070" as="sourcePoint"/><mxPoint x="714.9999999999998" y="2030" as="targetPoint"/></mxGeometry></mxCell><mxCell id="379" value="" style="endArrow=oval;html=1;endFill=1;strokeColor=#000000;" parent="1" source="382" edge="1"><mxGeometry width="50" height="50" relative="1" as="geometry"><mxPoint x="794.9999999999998" y="2030" as="sourcePoint"/><mxPoint x="795" y="2030" as="targetPoint"/></mxGeometry></mxCell><mxCell id="381" value="" style="endArrow=oval;html=1;endFill=1;" parent="1" edge="1"><mxGeometry width="50" height="50" relative="1" as="geometry"><mxPoint x="674.9999999999998" y="2150" as="sourcePoint"/><mxPoint x="754.9999999999998" y="2070" as="targetPoint"/></mxGeometry></mxCell><mxCell id="382" value="" style="ellipse;whiteSpace=wrap;html=1;fillColor=none;strokeColor=#4D9900;" parent="1" vertex="1"><mxGeometry x="745" y="2060" width="20" height="20" as="geometry"/></mxCell><mxCell id="384" value="" style="endArrow=oval;html=1;endFill=1;strokeColor=#000000;" parent="1" edge="1"><mxGeometry width="50" height="50" relative="1" as="geometry"><mxPoint x="854.9999999999998" y="2030" as="sourcePoint"/><mxPoint x="834.9999999999998" y="2010" as="targetPoint"/></mxGeometry></mxCell><mxCell id="385" value="" style="endArrow=oval;html=1;endFill=1;" parent="1" edge="1"><mxGeometry width="50" height="50" relative="1" as="geometry"><mxPoint x="894.9999999999998" y="2070" as="sourcePoint"/><mxPoint x="854.9999999999998" y="2030" as="targetPoint"/></mxGeometry></mxCell><mxCell id="386" value="" style="endArrow=oval;html=1;endFill=1;strokeColor=#000000;" parent="1" edge="1"><mxGeometry width="50" height="50" relative="1" as="geometry"><mxPoint x="854.9999999999998" y="2030" as="sourcePoint"/><mxPoint x="874.9999999999998" y="2010" as="targetPoint"/></mxGeometry></mxCell><mxCell id="388" value="" style="endArrow=oval;html=1;endFill=1;strokeColor=#000000;dashed=1;" parent="1" edge="1"><mxGeometry width="50" height="50" relative="1" as="geometry"><mxPoint x="874.9999999999998" y="2010" as="sourcePoint"/><mxPoint x="864.9999999999998" y="2000" as="targetPoint"/></mxGeometry></mxCell><mxCell id="389" value="" style="endArrow=oval;html=1;endFill=1;strokeColor=#000000;dashed=1;" parent="1" edge="1"><mxGeometry width="50" height="50" relative="1" as="geometry"><mxPoint x="874.9999999999998" y="2010" as="sourcePoint"/><mxPoint x="884.9999999999998" y="2000" as="targetPoint"/></mxGeometry></mxCell><mxCell id="390" value="" style="endArrow=oval;html=1;endFill=1;strokeColor=#000000;" parent="1" source="392" edge="1"><mxGeometry width="50" height="50" relative="1" as="geometry"><mxPoint x="934.9999999999998" y="2030" as="sourcePoint"/><mxPoint x="935" y="2030" as="targetPoint"/></mxGeometry></mxCell><mxCell id="391" value="" style="endArrow=oval;html=1;endFill=1;" parent="1" edge="1"><mxGeometry width="50" height="50" relative="1" as="geometry"><mxPoint x="814.9999999999998" y="2150" as="sourcePoint"/><mxPoint x="894.9999999999998" y="2070" as="targetPoint"/></mxGeometry></mxCell><mxCell id="392" value="" style="ellipse;whiteSpace=wrap;html=1;fillColor=none;strokeColor=#4D9900;" parent="1" vertex="1"><mxGeometry x="885" y="2060" width="20" height="20" as="geometry"/></mxCell><mxCell id="393" value="" style="endArrow=oval;html=1;endFill=1;strokeColor=#000000;dashed=1;" parent="1" edge="1"><mxGeometry width="50" height="50" relative="1" as="geometry"><mxPoint x="974.9999999999998" y="2010" as="sourcePoint"/><mxPoint x="964.9999999999998" y="2000" as="targetPoint"/></mxGeometry></mxCell><mxCell id="394" value="" style="endArrow=oval;html=1;endFill=1;strokeColor=#000000;" parent="1" edge="1"><mxGeometry width="50" height="50" relative="1" as="geometry"><mxPoint x="994.9999999999998" y="2030" as="sourcePoint"/><mxPoint x="974.9999999999998" y="2010" as="targetPoint"/></mxGeometry></mxCell><mxCell id="395" value="" style="endArrow=oval;html=1;endFill=1;" parent="1" edge="1"><mxGeometry width="50" height="50" relative="1" as="geometry"><mxPoint x="1034.9999999999998" y="2070" as="sourcePoint"/><mxPoint x="994.9999999999998" y="2030" as="targetPoint"/></mxGeometry></mxCell><mxCell id="396" value="" style="endArrow=oval;html=1;endFill=1;strokeColor=#000000;" parent="1" edge="1"><mxGeometry width="50" height="50" relative="1" as="geometry"><mxPoint x="994.9999999999998" y="2030" as="sourcePoint"/><mxPoint x="1014.9999999999998" y="2010" as="targetPoint"/></mxGeometry></mxCell><mxCell id="397" value="" style="endArrow=oval;html=1;endFill=1;strokeColor=#000000;dashed=1;" parent="1" edge="1"><mxGeometry width="50" height="50" relative="1" as="geometry"><mxPoint x="974.9999999999998" y="2010" as="sourcePoint"/><mxPoint x="984.9999999999998" y="2000" as="targetPoint"/></mxGeometry></mxCell><mxCell id="400" value="" style="endArrow=oval;html=1;endFill=1;strokeColor=#000000;" parent="1" source="402" edge="1"><mxGeometry width="50" height="50" relative="1" as="geometry"><mxPoint x="1074.9999999999998" y="2030" as="sourcePoint"/><mxPoint x="1075" y="2030" as="targetPoint"/></mxGeometry></mxCell><mxCell id="401" value="" style="endArrow=oval;html=1;endFill=1;" parent="1" edge="1"><mxGeometry width="50" height="50" relative="1" as="geometry"><mxPoint x="954.9999999999998" y="2150" as="sourcePoint"/><mxPoint x="1034.9999999999998" y="2070" as="targetPoint"/></mxGeometry></mxCell><mxCell id="402" value="" style="ellipse;whiteSpace=wrap;html=1;fillColor=none;strokeColor=#4D9900;" parent="1" vertex="1"><mxGeometry x="1025" y="2060" width="20" height="20" as="geometry"/></mxCell><mxCell id="403" value="" style="endArrow=oval;html=1;endFill=1;strokeColor=#000000;dashed=1;" parent="1" edge="1"><mxGeometry width="50" height="50" relative="1" as="geometry"><mxPoint x="714.9999999999998" y="2030" as="sourcePoint"/><mxPoint x="694.9999999999998" y="2010" as="targetPoint"/></mxGeometry></mxCell><mxCell id="404" value="" style="endArrow=oval;html=1;endFill=1;strokeColor=#000000;dashed=1;" parent="1" edge="1"><mxGeometry width="50" height="50" relative="1" as="geometry"><mxPoint x="714.9999999999998" y="2030" as="sourcePoint"/><mxPoint x="734.9999999999998" y="2010" as="targetPoint"/></mxGeometry></mxCell><mxCell id="405" value="" style="endArrow=oval;html=1;endFill=1;strokeColor=#000000;dashed=1;" parent="1" edge="1"><mxGeometry width="50" height="50" relative="1" as="geometry"><mxPoint x="1115" y="2010" as="sourcePoint"/><mxPoint x="1105" y="2000" as="targetPoint"/></mxGeometry></mxCell><mxCell id="406" value="" style="endArrow=oval;html=1;endFill=1;strokeColor=#000000;" parent="1" edge="1"><mxGeometry width="50" height="50" relative="1" as="geometry"><mxPoint x="1135" y="2030" as="sourcePoint"/><mxPoint x="1115" y="2010" as="targetPoint"/></mxGeometry></mxCell><mxCell id="407" value="" style="endArrow=oval;html=1;endFill=1;" parent="1" edge="1"><mxGeometry width="50" height="50" relative="1" as="geometry"><mxPoint x="1175" y="2070" as="sourcePoint"/><mxPoint x="1135" y="2030" as="targetPoint"/></mxGeometry></mxCell><mxCell id="408" value="" style="endArrow=oval;html=1;endFill=1;strokeColor=#000000;" parent="1" edge="1"><mxGeometry width="50" height="50" relative="1" as="geometry"><mxPoint x="1135" y="2030" as="sourcePoint"/><mxPoint x="1155" y="2010" as="targetPoint"/></mxGeometry></mxCell><mxCell id="409" value="" style="endArrow=oval;html=1;endFill=1;strokeColor=#000000;dashed=1;" parent="1" edge="1"><mxGeometry width="50" height="50" relative="1" as="geometry"><mxPoint x="1115" y="2010" as="sourcePoint"/><mxPoint x="1125" y="2000" as="targetPoint"/></mxGeometry></mxCell><mxCell id="410" value="" style="endArrow=oval;html=1;endFill=1;strokeColor=#000000;dashed=1;" parent="1" edge="1"><mxGeometry width="50" height="50" relative="1" as="geometry"><mxPoint x="1155" y="2010" as="sourcePoint"/><mxPoint x="1145" y="2000" as="targetPoint"/></mxGeometry></mxCell><mxCell id="411" value="" style="endArrow=oval;html=1;endFill=1;strokeColor=#000000;dashed=1;" parent="1" edge="1"><mxGeometry width="50" height="50" relative="1" as="geometry"><mxPoint x="1155" y="2010" as="sourcePoint"/><mxPoint x="1165" y="2000" as="targetPoint"/></mxGeometry></mxCell><mxCell id="412" value="" style="endArrow=oval;html=1;endFill=1;strokeColor=#000000;" parent="1" source="414" edge="1"><mxGeometry width="50" height="50" relative="1" as="geometry"><mxPoint x="1214.9999999999998" y="2030" as="sourcePoint"/><mxPoint x="1215" y="2030" as="targetPoint"/></mxGeometry></mxCell><mxCell id="413" value="" style="endArrow=oval;html=1;endFill=1;" parent="1" edge="1"><mxGeometry width="50" height="50" relative="1" as="geometry"><mxPoint x="1095" y="2150" as="sourcePoint"/><mxPoint x="1175" y="2070" as="targetPoint"/></mxGeometry></mxCell><mxCell id="414" value="" style="ellipse;whiteSpace=wrap;html=1;fillColor=none;strokeColor=#4D9900;" parent="1" vertex="1"><mxGeometry x="1165" y="2060" width="20" height="20" as="geometry"/></mxCell><mxCell id="416" value="a" style="text;html=1;strokeColor=none;fillColor=none;align=center;verticalAlign=middle;whiteSpace=wrap;rounded=0;" parent="1" vertex="1"><mxGeometry x="705" y="2040" width="10" height="10" as="geometry"/></mxCell><mxCell id="417" value="b" style="text;html=1;strokeColor=none;fillColor=none;align=center;verticalAlign=middle;whiteSpace=wrap;rounded=0;" parent="1" vertex="1"><mxGeometry x="749" y="2080" width="10" height="10" as="geometry"/></mxCell><mxCell id="418" value="a" style="text;html=1;strokeColor=none;fillColor=none;align=center;verticalAlign=middle;whiteSpace=wrap;rounded=0;" parent="1" vertex="1"><mxGeometry x="845" y="2040" width="10" height="10" as="geometry"/></mxCell><mxCell id="419" value="a" style="text;html=1;strokeColor=none;fillColor=none;align=center;verticalAlign=middle;whiteSpace=wrap;rounded=0;" parent="1" vertex="1"><mxGeometry x="985" y="2040" width="10" height="10" as="geometry"/></mxCell><mxCell id="420" value="a" style="text;html=1;strokeColor=none;fillColor=none;align=center;verticalAlign=middle;whiteSpace=wrap;rounded=0;" parent="1" vertex="1"><mxGeometry x="1135" y="2040" width="10" height="10" as="geometry"/></mxCell><mxCell id="421" value="" style="endArrow=oval;html=1;endFill=1;strokeColor=#000000;dashed=1;" parent="1" edge="1"><mxGeometry width="50" height="50" relative="1" as="geometry"><mxPoint x="1135" y="2190" as="sourcePoint"/><mxPoint x="1115" y="2170" as="targetPoint"/></mxGeometry></mxCell><mxCell id="422" value="" style="endArrow=oval;html=1;endFill=1;strokeColor=#000000;" parent="1" source="430" edge="1"><mxGeometry width="50" height="50" relative="1" as="geometry"><mxPoint x="1135" y="2190" as="sourcePoint"/><mxPoint x="1135" y="2190" as="targetPoint"/></mxGeometry></mxCell><mxCell id="424" value="" style="endArrow=oval;html=1;endFill=1;strokeColor=#000000;" parent="1" edge="1"><mxGeometry width="50" height="50" relative="1" as="geometry"><mxPoint x="1215" y="2190" as="sourcePoint"/><mxPoint x="1195" y="2170" as="targetPoint"/></mxGeometry></mxCell><mxCell id="425" value="" style="endArrow=oval;html=1;endFill=1;strokeColor=#000000;dashed=1;" parent="1" edge="1"><mxGeometry width="50" height="50" relative="1" as="geometry"><mxPoint x="1135" y="2190" as="sourcePoint"/><mxPoint x="1155" y="2170" as="targetPoint"/></mxGeometry></mxCell><mxCell id="426" value="" style="endArrow=oval;html=1;endFill=1;strokeColor=#000000;dashed=1;" parent="1" edge="1"><mxGeometry width="50" height="50" relative="1" as="geometry"><mxPoint x="1195" y="2170" as="sourcePoint"/><mxPoint x="1185" y="2160" as="targetPoint"/></mxGeometry></mxCell><mxCell id="427" value="" style="endArrow=oval;html=1;endFill=1;strokeColor=#000000;dashed=1;" parent="1" edge="1"><mxGeometry width="50" height="50" relative="1" as="geometry"><mxPoint x="1195" y="2170" as="sourcePoint"/><mxPoint x="1205" y="2160" as="targetPoint"/></mxGeometry></mxCell><mxCell id="428" value="" style="endArrow=oval;html=1;endFill=1;strokeColor=#000000;" parent="1" edge="1"><mxGeometry width="50" height="50" relative="1" as="geometry"><mxPoint x="1215" y="2190" as="sourcePoint"/><mxPoint x="1235" y="2170" as="targetPoint"/></mxGeometry></mxCell><mxCell id="429" value="" style="endArrow=oval;html=1;endFill=1;" parent="1" edge="1"><mxGeometry width="50" height="50" relative="1" as="geometry"><mxPoint x="1095" y="2310" as="sourcePoint"/><mxPoint x="1175" y="2230" as="targetPoint"/></mxGeometry></mxCell><mxCell id="430" value="" style="ellipse;whiteSpace=wrap;html=1;fillColor=none;strokeColor=#4D9900;" parent="1" vertex="1"><mxGeometry x="1165" y="2220" width="20" height="20" as="geometry"/></mxCell><mxCell id="431" value="a" style="text;html=1;strokeColor=none;fillColor=none;align=center;verticalAlign=middle;whiteSpace=wrap;rounded=0;" parent="1" vertex="1"><mxGeometry x="1155" y="2230" width="10" height="10" as="geometry"/></mxCell><mxCell id="432" value="b" style="text;html=1;strokeColor=none;fillColor=none;align=center;verticalAlign=middle;whiteSpace=wrap;rounded=0;" parent="1" vertex="1"><mxGeometry x="1175" y="2080" width="10" height="10" as="geometry"/></mxCell><mxCell id="433" value="b" style="text;html=1;strokeColor=none;fillColor=none;align=center;verticalAlign=middle;whiteSpace=wrap;rounded=0;" parent="1" vertex="1"><mxGeometry x="1215" y="2200" width="10" height="10" as="geometry"/></mxCell><mxCell id="434" value="" style="endArrow=oval;html=1;endFill=1;strokeColor=#000000;" parent="1" edge="1"><mxGeometry width="50" height="50" relative="1" as="geometry"><mxPoint x="1182.0710678118655" y="2222.9289321881342" as="sourcePoint"/><mxPoint x="1215" y="2190" as="targetPoint"/></mxGeometry></mxCell><mxCell id="435" value="c" style="text;html=1;strokeColor=none;fillColor=none;align=center;verticalAlign=middle;whiteSpace=wrap;rounded=0;" parent="1" vertex="1"><mxGeometry x="1125" y="2200" width="10" height="10" as="geometry"/></mxCell><mxCell id="436" value="c" style="text;html=1;strokeColor=none;fillColor=none;align=center;verticalAlign=middle;whiteSpace=wrap;rounded=0;" parent="1" vertex="1"><mxGeometry x="1115" y="2020" width="10" height="10" as="geometry"/></mxCell><mxCell id="437" value="1- pivot" style="text;html=1;strokeColor=none;fillColor=none;align=center;verticalAlign=middle;whiteSpace=wrap;rounded=0;" parent="1" vertex="1"><mxGeometry x="1165" y="2110" width="60" height="30" as="geometry"/></mxCell><mxCell id="464" value="" style="endArrow=oval;html=1;endFill=1;strokeColor=#000000;dashed=1;" parent="1" edge="1"><mxGeometry width="50" height="50" relative="1" as="geometry"><mxPoint x="995" y="2190" as="sourcePoint"/><mxPoint x="975" y="2170" as="targetPoint"/></mxGeometry></mxCell><mxCell id="465" value="" style="endArrow=oval;html=1;endFill=1;strokeColor=#000000;" parent="1" source="472" edge="1"><mxGeometry width="50" height="50" relative="1" as="geometry"><mxPoint x="995" y="2190" as="sourcePoint"/><mxPoint x="995" y="2190" as="targetPoint"/></mxGeometry></mxCell><mxCell id="466" value="" style="endArrow=oval;html=1;endFill=1;strokeColor=#000000;" parent="1" edge="1"><mxGeometry width="50" height="50" relative="1" as="geometry"><mxPoint x="1075" y="2190" as="sourcePoint"/><mxPoint x="1055" y="2170" as="targetPoint"/></mxGeometry></mxCell><mxCell id="467" value="" style="endArrow=oval;html=1;endFill=1;strokeColor=#000000;dashed=1;" parent="1" edge="1"><mxGeometry width="50" height="50" relative="1" as="geometry"><mxPoint x="995" y="2190" as="sourcePoint"/><mxPoint x="1015" y="2170" as="targetPoint"/></mxGeometry></mxCell><mxCell id="470" value="" style="endArrow=oval;html=1;endFill=1;strokeColor=#000000;" parent="1" edge="1"><mxGeometry width="50" height="50" relative="1" as="geometry"><mxPoint x="1075" y="2190" as="sourcePoint"/><mxPoint x="1095" y="2170" as="targetPoint"/></mxGeometry></mxCell><mxCell id="471" value="" style="endArrow=oval;html=1;endFill=1;" parent="1" edge="1"><mxGeometry width="50" height="50" relative="1" as="geometry"><mxPoint x="955" y="2310" as="sourcePoint"/><mxPoint x="1035" y="2230" as="targetPoint"/></mxGeometry></mxCell><mxCell id="472" value="" style="ellipse;whiteSpace=wrap;html=1;fillColor=none;strokeColor=#4D9900;" parent="1" vertex="1"><mxGeometry x="1025" y="2220" width="20" height="20" as="geometry"/></mxCell><mxCell id="473" value="a" style="text;html=1;strokeColor=none;fillColor=none;align=center;verticalAlign=middle;whiteSpace=wrap;rounded=0;" parent="1" vertex="1"><mxGeometry x="1015" y="2230" width="10" height="10" as="geometry"/></mxCell><mxCell id="474" value="b" style="text;html=1;strokeColor=none;fillColor=none;align=center;verticalAlign=middle;whiteSpace=wrap;rounded=0;" parent="1" vertex="1"><mxGeometry x="1075" y="2200" width="10" height="10" as="geometry"/></mxCell><mxCell id="475" value="" style="endArrow=oval;html=1;endFill=1;strokeColor=#000000;" parent="1" edge="1"><mxGeometry width="50" height="50" relative="1" as="geometry"><mxPoint x="1042.0710678118655" y="2222.9289321881342" as="sourcePoint"/><mxPoint x="1075" y="2190" as="targetPoint"/></mxGeometry></mxCell><mxCell id="476" value="c" style="text;html=1;strokeColor=none;fillColor=none;align=center;verticalAlign=middle;whiteSpace=wrap;rounded=0;" parent="1" vertex="1"><mxGeometry x="985" y="2200" width="10" height="10" as="geometry"/></mxCell><mxCell id="477" value="1- pivot" style="text;html=1;strokeColor=none;fillColor=none;align=center;verticalAlign=middle;whiteSpace=wrap;rounded=0;" parent="1" vertex="1"><mxGeometry x="1015" y="2110" width="60" height="30" as="geometry"/></mxCell><mxCell id="478" value="" style="endArrow=oval;html=1;endFill=1;strokeColor=#000000;" parent="1" edge="1"><mxGeometry width="50" height="50" relative="1" as="geometry"><mxPoint x="894.9999999999998" y="2230" as="sourcePoint"/><mxPoint x="855" y="2190" as="targetPoint"/></mxGeometry></mxCell><mxCell id="480" value="" style="endArrow=oval;html=1;endFill=1;strokeColor=#000000;" parent="1" edge="1"><mxGeometry width="50" height="50" relative="1" as="geometry"><mxPoint x="854.9999999999998" y="2190" as="sourcePoint"/><mxPoint x="835" y="2170" as="targetPoint"/></mxGeometry></mxCell><mxCell id="481" value="" style="endArrow=oval;html=1;endFill=1;strokeColor=#000000;dashed=1;" parent="1" edge="1"><mxGeometry width="50" height="50" relative="1" as="geometry"><mxPoint x="855" y="2190" as="sourcePoint"/><mxPoint x="875" y="2170" as="targetPoint"/></mxGeometry></mxCell><mxCell id="482" value="" style="endArrow=oval;html=1;endFill=1;strokeColor=#000000;dashed=1;" parent="1" edge="1"><mxGeometry width="50" height="50" relative="1" as="geometry"><mxPoint x="935" y="2190" as="sourcePoint"/><mxPoint x="915" y="2170" as="targetPoint"/></mxGeometry></mxCell><mxCell id="483" value="" style="endArrow=oval;html=1;endFill=1;strokeColor=#000000;" parent="1" source="485" edge="1"><mxGeometry width="50" height="50" relative="1" as="geometry"><mxPoint x="934.9999999999998" y="2190" as="sourcePoint"/><mxPoint x="935" y="2190" as="targetPoint"/></mxGeometry></mxCell><mxCell id="484" value="" style="endArrow=oval;html=1;endFill=1;" parent="1" edge="1"><mxGeometry width="50" height="50" relative="1" as="geometry"><mxPoint x="814.9999999999998" y="2310" as="sourcePoint"/><mxPoint x="894.9999999999998" y="2230" as="targetPoint"/></mxGeometry></mxCell><mxCell id="485" value="" style="ellipse;whiteSpace=wrap;html=1;fillColor=none;strokeColor=#4D9900;" parent="1" vertex="1"><mxGeometry x="885" y="2220" width="20" height="20" as="geometry"/></mxCell><mxCell id="486" value="a" style="text;html=1;strokeColor=none;fillColor=none;align=center;verticalAlign=middle;whiteSpace=wrap;rounded=0;" parent="1" vertex="1"><mxGeometry x="845" y="2200" width="10" height="10" as="geometry"/></mxCell><mxCell id="487" value="" style="endArrow=oval;html=1;endFill=1;strokeColor=#000000;dashed=1;" parent="1" edge="1"><mxGeometry width="50" height="50" relative="1" as="geometry"><mxPoint x="374.9999999999998" y="2010" as="sourcePoint"/><mxPoint x="364.9999999999998" y="2000" as="targetPoint"/></mxGeometry></mxCell><mxCell id="488" value="" style="endArrow=oval;html=1;endFill=1;strokeColor=#000000;dashed=1;" parent="1" edge="1"><mxGeometry width="50" height="50" relative="1" as="geometry"><mxPoint x="394.9999999999998" y="2030" as="sourcePoint"/><mxPoint x="374.9999999999998" y="2010" as="targetPoint"/></mxGeometry></mxCell><mxCell id="489" value="" style="endArrow=oval;html=1;endFill=1;" parent="1" edge="1"><mxGeometry width="50" height="50" relative="1" as="geometry"><mxPoint x="434.9999999999998" y="2070" as="sourcePoint"/><mxPoint x="394.9999999999998" y="2030" as="targetPoint"/></mxGeometry></mxCell><mxCell id="490" value="" style="endArrow=oval;html=1;endFill=1;strokeColor=#000000;dashed=1;" parent="1" edge="1"><mxGeometry width="50" height="50" relative="1" as="geometry"><mxPoint x="394.9999999999998" y="2030" as="sourcePoint"/><mxPoint x="414.9999999999998" y="2010" as="targetPoint"/></mxGeometry></mxCell><mxCell id="491" value="" style="endArrow=oval;html=1;endFill=1;strokeColor=#000000;dashed=1;" parent="1" edge="1"><mxGeometry width="50" height="50" relative="1" as="geometry"><mxPoint x="374.9999999999998" y="2010" as="sourcePoint"/><mxPoint x="384.9999999999998" y="2000" as="targetPoint"/></mxGeometry></mxCell><mxCell id="492" value="" style="endArrow=oval;html=1;endFill=1;strokeColor=#000000;dashed=1;" parent="1" edge="1"><mxGeometry width="50" height="50" relative="1" as="geometry"><mxPoint x="414.9999999999998" y="2010" as="sourcePoint"/><mxPoint x="404.9999999999998" y="2000" as="targetPoint"/></mxGeometry></mxCell><mxCell id="493" value="" style="endArrow=oval;html=1;endFill=1;strokeColor=#000000;dashed=1;" parent="1" edge="1"><mxGeometry width="50" height="50" relative="1" as="geometry"><mxPoint x="414.9999999999998" y="2010" as="sourcePoint"/><mxPoint x="424.9999999999998" y="2000" as="targetPoint"/></mxGeometry></mxCell><mxCell id="494" value="" style="endArrow=oval;html=1;endFill=1;strokeColor=#000000;entryX=0.344;entryY=0.167;entryDx=0;entryDy=0;entryPerimeter=0;" parent="1" edge="1"><mxGeometry width="50" height="50" relative="1" as="geometry"><mxPoint x="474.9999999999998" y="2030" as="sourcePoint"/><mxPoint x="455.0799999999999" y="2010.06" as="targetPoint"/></mxGeometry></mxCell><mxCell id="495" value="" style="endArrow=oval;html=1;endFill=1;strokeColor=#990000;" parent="1" edge="1"><mxGeometry width="50" height="50" relative="1" as="geometry"><mxPoint x="434.9999999999998" y="2070" as="sourcePoint"/><mxPoint x="474.9999999999998" y="2030" as="targetPoint"/></mxGeometry></mxCell><mxCell id="496" value="" style="endArrow=oval;html=1;endFill=1;" parent="1" edge="1"><mxGeometry width="50" height="50" relative="1" as="geometry"><mxPoint x="354.9999999999998" y="2150" as="sourcePoint"/><mxPoint x="434.9999999999998" y="2070" as="targetPoint"/></mxGeometry></mxCell><mxCell id="497" value="" style="ellipse;whiteSpace=wrap;html=1;fillColor=none;strokeColor=#4D9900;" parent="1" vertex="1"><mxGeometry x="425" y="2060" width="20" height="20" as="geometry"/></mxCell><mxCell id="498" value="or" style="text;html=1;strokeColor=none;fillColor=none;align=center;verticalAlign=middle;whiteSpace=wrap;rounded=0;" parent="1" vertex="1"><mxGeometry x="475" y="2060" width="60" height="30" as="geometry"/></mxCell><mxCell id="502" style="edgeStyle=orthogonalEdgeStyle;rounded=0;orthogonalLoop=1;jettySize=auto;html=1;" parent="1" edge="1"><mxGeometry relative="1" as="geometry"><mxPoint x="685" y="2070" as="targetPoint"/><mxPoint x="664.9999999999995" y="2070.0588235294117" as="sourcePoint"/><Array as="points"><mxPoint x="685" y="2070"/><mxPoint x="685" y="2070"/></Array></mxGeometry></mxCell><mxCell id="503" value="2- pivot" style="text;html=1;strokeColor=none;fillColor=none;align=center;verticalAlign=middle;whiteSpace=wrap;rounded=0;" parent="1" vertex="1"><mxGeometry x="875" y="2110" width="60" height="30" as="geometry"/></mxCell><mxCell id="504" value="no - pivot" style="text;html=1;strokeColor=none;fillColor=none;align=center;verticalAlign=middle;whiteSpace=wrap;rounded=0;" parent="1" vertex="1"><mxGeometry x="725" y="2110" width="60" height="30" as="geometry"/></mxCell><mxCell id="505" value="c" style="text;html=1;strokeColor=none;fillColor=none;align=center;verticalAlign=middle;whiteSpace=wrap;rounded=0;" parent="1" vertex="1"><mxGeometry x="875" y="2020" width="10" height="10" as="geometry"/></mxCell><mxCell id="507" value="c" style="text;html=1;strokeColor=none;fillColor=none;align=center;verticalAlign=middle;whiteSpace=wrap;rounded=0;" parent="1" vertex="1"><mxGeometry x="890" y="2240" width="10" height="10" as="geometry"/></mxCell><mxCell id="508" value="b" style="text;html=1;strokeColor=none;fillColor=none;align=center;verticalAlign=middle;whiteSpace=wrap;rounded=0;" parent="1" vertex="1"><mxGeometry x="1035" y="2080" width="10" height="10" as="geometry"/></mxCell><mxCell id="509" value="b" style="text;html=1;strokeColor=none;fillColor=none;align=center;verticalAlign=middle;whiteSpace=wrap;rounded=0;" parent="1" vertex="1"><mxGeometry x="895" y="2080" width="10" height="10" as="geometry"/></mxCell><mxCell id="510" value="b" style="text;html=1;strokeColor=none;fillColor=none;align=center;verticalAlign=middle;whiteSpace=wrap;rounded=0;" parent="1" vertex="1"><mxGeometry x="935" y="2200" width="10" height="10" as="geometry"/></mxCell><mxCell id="511" value="" style="endArrow=oval;html=1;endFill=1;strokeColor=#000000;dashed=1;" parent="1" edge="1"><mxGeometry width="50" height="50" relative="1" as="geometry"><mxPoint x="215" y="2010" as="sourcePoint"/><mxPoint x="205" y="2000" as="targetPoint"/></mxGeometry></mxCell><mxCell id="512" value="" style="endArrow=oval;html=1;endFill=1;strokeColor=#000000;dashed=1;" parent="1" edge="1"><mxGeometry width="50" height="50" relative="1" as="geometry"><mxPoint x="235" y="2030" as="sourcePoint"/><mxPoint x="215" y="2010" as="targetPoint"/></mxGeometry></mxCell><mxCell id="513" value="" style="endArrow=oval;html=1;endFill=1;" parent="1" edge="1"><mxGeometry width="50" height="50" relative="1" as="geometry"><mxPoint x="275" y="2070" as="sourcePoint"/><mxPoint x="235" y="2030" as="targetPoint"/></mxGeometry></mxCell><mxCell id="514" value="" style="endArrow=oval;html=1;endFill=1;strokeColor=#000000;dashed=1;" parent="1" edge="1"><mxGeometry width="50" height="50" relative="1" as="geometry"><mxPoint x="235" y="2030" as="sourcePoint"/><mxPoint x="255" y="2010" as="targetPoint"/></mxGeometry></mxCell><mxCell id="515" value="" style="endArrow=oval;html=1;endFill=1;strokeColor=#000000;dashed=1;" parent="1" edge="1"><mxGeometry width="50" height="50" relative="1" as="geometry"><mxPoint x="215" y="2010" as="sourcePoint"/><mxPoint x="225" y="2000" as="targetPoint"/></mxGeometry></mxCell><mxCell id="516" value="" style="endArrow=oval;html=1;endFill=1;strokeColor=#000000;dashed=1;" parent="1" edge="1"><mxGeometry width="50" height="50" relative="1" as="geometry"><mxPoint x="255" y="2010" as="sourcePoint"/><mxPoint x="245" y="2000" as="targetPoint"/></mxGeometry></mxCell><mxCell id="517" value="" style="endArrow=oval;html=1;endFill=1;strokeColor=#000000;dashed=1;" parent="1" edge="1"><mxGeometry width="50" height="50" relative="1" as="geometry"><mxPoint x="255" y="2010" as="sourcePoint"/><mxPoint x="265" y="2000" as="targetPoint"/></mxGeometry></mxCell><mxCell id="518" value="" style="endArrow=oval;html=1;endFill=1;strokeColor=#990000;" parent="1" edge="1"><mxGeometry width="50" height="50" relative="1" as="geometry"><mxPoint x="315" y="2030" as="sourcePoint"/><mxPoint x="335" y="2010" as="targetPoint"/></mxGeometry></mxCell><mxCell id="519" value="" style="endArrow=oval;html=1;endFill=1;strokeColor=#000000;" parent="1" edge="1"><mxGeometry width="50" height="50" relative="1" as="geometry"><mxPoint x="275" y="2070" as="sourcePoint"/><mxPoint x="315" y="2030" as="targetPoint"/></mxGeometry></mxCell><mxCell id="520" value="" style="endArrow=oval;html=1;endFill=1;" parent="1" edge="1"><mxGeometry width="50" height="50" relative="1" as="geometry"><mxPoint x="195" y="2150" as="sourcePoint"/><mxPoint x="275" y="2070" as="targetPoint"/></mxGeometry></mxCell><mxCell id="521" value="" style="ellipse;whiteSpace=wrap;html=1;fillColor=none;strokeColor=#4D9900;" parent="1" vertex="1"><mxGeometry x="265" y="2060" width="20" height="20" as="geometry"/></mxCell><mxCell id="522" value="" style="endArrow=oval;html=1;endFill=1;strokeColor=#000000;dashed=1;" parent="1" edge="1"><mxGeometry width="50" height="50" relative="1" as="geometry"><mxPoint x="55" y="2010" as="sourcePoint"/><mxPoint x="45" y="2000" as="targetPoint"/></mxGeometry></mxCell><mxCell id="523" value="" style="endArrow=oval;html=1;endFill=1;strokeColor=#000000;dashed=1;" parent="1" edge="1"><mxGeometry width="50" height="50" relative="1" as="geometry"><mxPoint x="75" y="2030" as="sourcePoint"/><mxPoint x="55" y="2010" as="targetPoint"/></mxGeometry></mxCell><mxCell id="524" value="" style="endArrow=oval;html=1;endFill=1;" parent="1" edge="1"><mxGeometry width="50" height="50" relative="1" as="geometry"><mxPoint x="115" y="2070" as="sourcePoint"/><mxPoint x="75" y="2030" as="targetPoint"/></mxGeometry></mxCell><mxCell id="525" value="" style="endArrow=oval;html=1;endFill=1;strokeColor=#000000;dashed=1;" parent="1" edge="1"><mxGeometry width="50" height="50" relative="1" as="geometry"><mxPoint x="75" y="2030" as="sourcePoint"/><mxPoint x="95" y="2010" as="targetPoint"/></mxGeometry></mxCell><mxCell id="526" value="" style="endArrow=oval;html=1;endFill=1;strokeColor=#000000;dashed=1;" parent="1" edge="1"><mxGeometry width="50" height="50" relative="1" as="geometry"><mxPoint x="55" y="2010" as="sourcePoint"/><mxPoint x="65" y="2000" as="targetPoint"/></mxGeometry></mxCell><mxCell id="527" value="" style="endArrow=oval;html=1;endFill=1;strokeColor=#000000;dashed=1;" parent="1" edge="1"><mxGeometry width="50" height="50" relative="1" as="geometry"><mxPoint x="95" y="2010" as="sourcePoint"/><mxPoint x="85" y="2000" as="targetPoint"/></mxGeometry></mxCell><mxCell id="528" value="" style="endArrow=oval;html=1;endFill=1;strokeColor=#000000;dashed=1;" parent="1" edge="1"><mxGeometry width="50" height="50" relative="1" as="geometry"><mxPoint x="95" y="2010" as="sourcePoint"/><mxPoint x="105" y="2000" as="targetPoint"/></mxGeometry></mxCell><mxCell id="529" value="" style="endArrow=oval;html=1;endFill=1;strokeColor=#990000;entryX=0.344;entryY=0.167;entryDx=0;entryDy=0;entryPerimeter=0;" parent="1" edge="1"><mxGeometry width="50" height="50" relative="1" as="geometry"><mxPoint x="155" y="2030" as="sourcePoint"/><mxPoint x="135.07999999999993" y="2010.06" as="targetPoint"/></mxGeometry></mxCell><mxCell id="530" value="" style="endArrow=oval;html=1;endFill=1;strokeColor=#000000;" parent="1" edge="1"><mxGeometry width="50" height="50" relative="1" as="geometry"><mxPoint x="115" y="2070" as="sourcePoint"/><mxPoint x="155" y="2030" as="targetPoint"/></mxGeometry></mxCell><mxCell id="531" value="" style="endArrow=oval;html=1;endFill=1;" parent="1" edge="1"><mxGeometry width="50" height="50" relative="1" as="geometry"><mxPoint x="35" y="2150" as="sourcePoint"/><mxPoint x="115" y="2070" as="targetPoint"/></mxGeometry></mxCell><mxCell id="532" value="" style="ellipse;whiteSpace=wrap;html=1;fillColor=none;strokeColor=#4D9900;" parent="1" vertex="1"><mxGeometry x="105" y="2060" width="20" height="20" as="geometry"/></mxCell><mxCell id="533" value="or" style="text;html=1;strokeColor=none;fillColor=none;align=center;verticalAlign=middle;whiteSpace=wrap;rounded=0;" parent="1" vertex="1"><mxGeometry x="155" y="2060" width="60" height="30" as="geometry"/></mxCell><mxCell id="534" value="or" style="text;html=1;strokeColor=none;fillColor=none;align=center;verticalAlign=middle;whiteSpace=wrap;rounded=0;" parent="1" vertex="1"><mxGeometry x="315" y="2060" width="60" height="30" as="geometry"/></mxCell><mxCell id="562" value="" style="endArrow=oval;html=1;endFill=1;" parent="1" edge="1"><mxGeometry width="50" height="50" relative="1" as="geometry"><mxPoint x="755" y="2230" as="sourcePoint"/><mxPoint x="715" y="2190" as="targetPoint"/></mxGeometry></mxCell><mxCell id="563" value="" style="endArrow=oval;html=1;endFill=1;strokeColor=#000000;" parent="1" source="565" edge="1"><mxGeometry width="50" height="50" relative="1" as="geometry"><mxPoint x="794.9999999999998" y="2190" as="sourcePoint"/><mxPoint x="795" y="2190" as="targetPoint"/></mxGeometry></mxCell><mxCell id="564" value="" style="endArrow=oval;html=1;endFill=1;" parent="1" edge="1"><mxGeometry width="50" height="50" relative="1" as="geometry"><mxPoint x="675" y="2310" as="sourcePoint"/><mxPoint x="755" y="2230" as="targetPoint"/></mxGeometry></mxCell><mxCell id="565" value="" style="ellipse;whiteSpace=wrap;html=1;fillColor=none;strokeColor=#4D9900;" parent="1" vertex="1"><mxGeometry x="745" y="2220" width="20" height="20" as="geometry"/></mxCell><mxCell id="566" value="" style="endArrow=oval;html=1;endFill=1;strokeColor=#000000;dashed=1;" parent="1" edge="1"><mxGeometry width="50" height="50" relative="1" as="geometry"><mxPoint x="715" y="2190" as="sourcePoint"/><mxPoint x="695" y="2170" as="targetPoint"/></mxGeometry></mxCell><mxCell id="567" value="" style="endArrow=oval;html=1;endFill=1;strokeColor=#000000;dashed=1;" parent="1" edge="1"><mxGeometry width="50" height="50" relative="1" as="geometry"><mxPoint x="715" y="2190" as="sourcePoint"/><mxPoint x="735" y="2170" as="targetPoint"/></mxGeometry></mxCell><mxCell id="568" value="a" style="text;html=1;strokeColor=none;fillColor=none;align=center;verticalAlign=middle;whiteSpace=wrap;rounded=0;" parent="1" vertex="1"><mxGeometry x="705" y="2200" width="10" height="10" as="geometry"/></mxCell><mxCell id="569" value="b" style="text;html=1;strokeColor=none;fillColor=none;align=center;verticalAlign=middle;whiteSpace=wrap;rounded=0;" parent="1" vertex="1"><mxGeometry x="755" y="2240" width="10" height="10" as="geometry"/></mxCell><mxCell id="579" style="edgeStyle=orthogonalEdgeStyle;rounded=0;orthogonalLoop=1;jettySize=auto;html=1;" parent="1" edge="1"><mxGeometry relative="1" as="geometry"><mxPoint x="290" y="1520" as="targetPoint"/><mxPoint x="270" y="1520" as="sourcePoint"/><Array as="points"><mxPoint x="280" y="1520"/></Array></mxGeometry></mxCell><mxCell id="580" value="a" style="text;html=1;strokeColor=none;fillColor=none;align=center;verticalAlign=middle;whiteSpace=wrap;rounded=0;" parent="1" vertex="1"><mxGeometry x="570" y="1460" width="10" height="10" as="geometry"/></mxCell><mxCell id="581" value="b" style="text;html=1;strokeColor=none;fillColor=none;align=center;verticalAlign=middle;whiteSpace=wrap;rounded=0;" parent="1" vertex="1"><mxGeometry x="590" y="1430" width="10" height="10" as="geometry"/></mxCell><mxCell id="583" value="a" style="text;html=1;strokeColor=none;fillColor=none;align=center;verticalAlign=middle;whiteSpace=wrap;rounded=0;" parent="1" vertex="1"><mxGeometry x="409" y="1460" width="10" height="10" as="geometry"/></mxCell><mxCell id="584" value="b" style="text;html=1;strokeColor=none;fillColor=none;align=center;verticalAlign=middle;whiteSpace=wrap;rounded=0;" parent="1" vertex="1"><mxGeometry x="435" y="1490" width="10" height="10" as="geometry"/></mxCell><mxCell id="586" value="" style="shape=curlyBracket;whiteSpace=wrap;html=1;rounded=1;flipH=1;fillColor=none;rotation=90;size=0.37499999999999434;" parent="1" vertex="1"><mxGeometry x="182.5" y="2022.5" width="20" height="295" as="geometry"/></mxCell><mxCell id="587" value="есть дополнительный шаг назад с&lt;br&gt;проверкой на высоты и указателя" style="text;html=1;align=center;verticalAlign=middle;resizable=0;points=[];autosize=1;strokeColor=none;fillColor=none;" parent="1" vertex="1"><mxGeometry x="80" y="2175" width="210" height="30" as="geometry"/></mxCell><mxCell id="588" value="a" style="text;html=1;strokeColor=none;fillColor=none;align=center;verticalAlign=middle;whiteSpace=wrap;rounded=0;" parent="1" vertex="1"><mxGeometry x="720" y="1430" width="10" height="10" as="geometry"/></mxCell><mxCell id="589" value="b" style="text;html=1;strokeColor=none;fillColor=none;align=center;verticalAlign=middle;whiteSpace=wrap;rounded=0;" parent="1" vertex="1"><mxGeometry x="730" y="1460" width="10" height="10" as="geometry"/></mxCell><mxCell id="590" value="2- pivot" style="text;html=1;strokeColor=none;fillColor=none;align=center;verticalAlign=middle;whiteSpace=wrap;rounded=0;" parent="1" vertex="1"><mxGeometry x="545" y="1550" width="60" height="30" as="geometry"/></mxCell><mxCell id="591" value="1- pivot" style="text;html=1;strokeColor=none;fillColor=none;align=center;verticalAlign=middle;whiteSpace=wrap;rounded=0;" parent="1" vertex="1"><mxGeometry x="705" y="1550" width="60" height="30" as="geometry"/></mxCell><mxCell id="609" value="" style="endArrow=oval;html=1;endFill=1;dashed=1;" parent="1" edge="1"><mxGeometry width="50" height="50" relative="1" as="geometry"><mxPoint x="660" y="1660" as="sourcePoint"/><mxPoint x="650" y="1650" as="targetPoint"/></mxGeometry></mxCell><mxCell id="610" value="" style="endArrow=oval;html=1;endFill=1;dashed=1;dashPattern=1 1;" parent="1" edge="1"><mxGeometry width="50" height="50" relative="1" as="geometry"><mxPoint x="680" y="1680" as="sourcePoint"/><mxPoint x="660" y="1660" as="targetPoint"/></mxGeometry></mxCell><mxCell id="611" value="" style="endArrow=oval;html=1;endFill=1;" parent="1" edge="1"><mxGeometry width="50" height="50" relative="1" as="geometry"><mxPoint x="720" y="1720" as="sourcePoint"/><mxPoint x="680" y="1680" as="targetPoint"/></mxGeometry></mxCell><mxCell id="612" value="" style="endArrow=oval;html=1;endFill=1;dashed=1;dashPattern=1 1;" parent="1" edge="1"><mxGeometry width="50" height="50" relative="1" as="geometry"><mxPoint x="680" y="1680" as="sourcePoint"/><mxPoint x="700" y="1660" as="targetPoint"/></mxGeometry></mxCell><mxCell id="613" value="" style="endArrow=oval;html=1;endFill=1;dashed=1;" parent="1" edge="1"><mxGeometry width="50" height="50" relative="1" as="geometry"><mxPoint x="660" y="1660" as="sourcePoint"/><mxPoint x="670" y="1650" as="targetPoint"/></mxGeometry></mxCell><mxCell id="614" value="" style="endArrow=oval;html=1;endFill=1;dashed=1;" parent="1" edge="1"><mxGeometry width="50" height="50" relative="1" as="geometry"><mxPoint x="700" y="1660" as="sourcePoint"/><mxPoint x="690" y="1650" as="targetPoint"/></mxGeometry></mxCell><mxCell id="615" value="" style="endArrow=oval;html=1;endFill=1;dashed=1;" parent="1" edge="1"><mxGeometry width="50" height="50" relative="1" as="geometry"><mxPoint x="700" y="1660" as="sourcePoint"/><mxPoint x="710" y="1650" as="targetPoint"/></mxGeometry></mxCell><mxCell id="616" value="" style="endArrow=oval;html=1;endFill=1;" parent="1" edge="1"><mxGeometry width="50" height="50" relative="1" as="geometry"><mxPoint x="760" y="1680" as="sourcePoint"/><mxPoint x="740" y="1660" as="targetPoint"/></mxGeometry></mxCell><mxCell id="617" value="" style="endArrow=oval;html=1;endFill=1;" parent="1" source="620" edge="1"><mxGeometry width="50" height="50" relative="1" as="geometry"><mxPoint x="740" y="1660" as="sourcePoint"/><mxPoint x="780" y="1660" as="targetPoint"/></mxGeometry></mxCell><mxCell id="618" value="" style="endArrow=oval;html=1;endFill=1;" parent="1" edge="1"><mxGeometry width="50" height="50" relative="1" as="geometry"><mxPoint x="720" y="1720" as="sourcePoint"/><mxPoint x="760" y="1680" as="targetPoint"/></mxGeometry></mxCell><mxCell id="619" value="" style="endArrow=oval;html=1;endFill=1;" parent="1" edge="1"><mxGeometry width="50" height="50" relative="1" as="geometry"><mxPoint x="640" y="1800" as="sourcePoint"/><mxPoint x="720" y="1720" as="targetPoint"/></mxGeometry></mxCell><mxCell id="620" value="" style="ellipse;whiteSpace=wrap;html=1;fillColor=none;strokeColor=#4D9900;" parent="1" vertex="1"><mxGeometry x="750" y="1670" width="20" height="20" as="geometry"/></mxCell><mxCell id="621" value="a" style="text;html=1;strokeColor=none;fillColor=none;align=center;verticalAlign=middle;whiteSpace=wrap;rounded=0;" parent="1" vertex="1"><mxGeometry x="730" y="1640" width="10" height="10" as="geometry"/></mxCell><mxCell id="622" value="b" style="text;html=1;strokeColor=none;fillColor=none;align=center;verticalAlign=middle;whiteSpace=wrap;rounded=0;" parent="1" vertex="1"><mxGeometry x="755" y="1690" width="10" height="10" as="geometry"/></mxCell><mxCell id="624" value="с" style="text;html=1;strokeColor=none;fillColor=none;align=center;verticalAlign=middle;whiteSpace=wrap;rounded=0;" parent="1" vertex="1"><mxGeometry x="600" y="1490" width="10" height="10" as="geometry"/></mxCell><mxCell id="625" value="с" style="text;html=1;strokeColor=none;fillColor=none;align=center;verticalAlign=middle;whiteSpace=wrap;rounded=0;" parent="1" vertex="1"><mxGeometry x="765" y="1490" width="10" height="10" as="geometry"/></mxCell><mxCell id="627" value="с" style="text;html=1;strokeColor=none;fillColor=none;align=center;verticalAlign=middle;whiteSpace=wrap;rounded=0;" parent="1" vertex="1"><mxGeometry x="780" y="1640" width="10" height="10" as="geometry"/></mxCell><mxCell id="628" value="" style="endArrow=oval;html=1;endFill=1;dashed=1;" parent="1" edge="1"><mxGeometry width="50" height="50" relative="1" as="geometry"><mxPoint x="500" y="1660" as="sourcePoint"/><mxPoint x="490" y="1650" as="targetPoint"/></mxGeometry></mxCell><mxCell id="629" value="" style="endArrow=oval;html=1;endFill=1;dashed=1;dashPattern=1 1;" parent="1" edge="1"><mxGeometry width="50" height="50" relative="1" as="geometry"><mxPoint x="520" y="1680" as="sourcePoint"/><mxPoint x="500" y="1660" as="targetPoint"/></mxGeometry></mxCell><mxCell id="630" value="" style="endArrow=oval;html=1;endFill=1;" parent="1" edge="1"><mxGeometry width="50" height="50" relative="1" as="geometry"><mxPoint x="560" y="1720" as="sourcePoint"/><mxPoint x="520" y="1680" as="targetPoint"/></mxGeometry></mxCell><mxCell id="631" value="" style="endArrow=oval;html=1;endFill=1;dashed=1;dashPattern=1 1;" parent="1" edge="1"><mxGeometry width="50" height="50" relative="1" as="geometry"><mxPoint x="520" y="1680" as="sourcePoint"/><mxPoint x="540" y="1660" as="targetPoint"/></mxGeometry></mxCell><mxCell id="632" value="" style="endArrow=oval;html=1;endFill=1;dashed=1;" parent="1" edge="1"><mxGeometry width="50" height="50" relative="1" as="geometry"><mxPoint x="500" y="1660" as="sourcePoint"/><mxPoint x="510" y="1650" as="targetPoint"/></mxGeometry></mxCell><mxCell id="633" value="" style="endArrow=oval;html=1;endFill=1;dashed=1;" parent="1" edge="1"><mxGeometry width="50" height="50" relative="1" as="geometry"><mxPoint x="540" y="1660" as="sourcePoint"/><mxPoint x="530" y="1650" as="targetPoint"/></mxGeometry></mxCell><mxCell id="634" value="" style="endArrow=oval;html=1;endFill=1;dashed=1;" parent="1" edge="1"><mxGeometry width="50" height="50" relative="1" as="geometry"><mxPoint x="540" y="1660" as="sourcePoint"/><mxPoint x="550" y="1650" as="targetPoint"/></mxGeometry></mxCell><mxCell id="635" value="" style="endArrow=oval;html=1;endFill=1;" parent="1" edge="1"><mxGeometry width="50" height="50" relative="1" as="geometry"><mxPoint x="600" y="1680" as="sourcePoint"/><mxPoint x="580" y="1660" as="targetPoint"/></mxGeometry></mxCell><mxCell id="636" value="" style="endArrow=oval;html=1;endFill=1;" parent="1" source="639" edge="1"><mxGeometry width="50" height="50" relative="1" as="geometry"><mxPoint x="580" y="1660" as="sourcePoint"/><mxPoint x="620" y="1660" as="targetPoint"/></mxGeometry></mxCell><mxCell id="637" value="" style="endArrow=oval;html=1;endFill=1;" parent="1" edge="1"><mxGeometry width="50" height="50" relative="1" as="geometry"><mxPoint x="560" y="1720" as="sourcePoint"/><mxPoint x="600" y="1680" as="targetPoint"/></mxGeometry></mxCell><mxCell id="638" value="" style="endArrow=oval;html=1;endFill=1;" parent="1" edge="1"><mxGeometry width="50" height="50" relative="1" as="geometry"><mxPoint x="480" y="1800" as="sourcePoint"/><mxPoint x="560" y="1720" as="targetPoint"/></mxGeometry></mxCell><mxCell id="639" value="" style="ellipse;whiteSpace=wrap;html=1;fillColor=none;strokeColor=#4D9900;" parent="1" vertex="1"><mxGeometry x="590" y="1670" width="20" height="20" as="geometry"/></mxCell><mxCell id="640" value="a" style="text;html=1;strokeColor=none;fillColor=none;align=center;verticalAlign=middle;whiteSpace=wrap;rounded=0;" parent="1" vertex="1"><mxGeometry x="570" y="1640" width="10" height="10" as="geometry"/></mxCell><mxCell id="641" value="b" style="text;html=1;strokeColor=none;fillColor=none;align=center;verticalAlign=middle;whiteSpace=wrap;rounded=0;" parent="1" vertex="1"><mxGeometry x="595" y="1690" width="10" height="10" as="geometry"/></mxCell><mxCell id="642" value="с" style="text;html=1;strokeColor=none;fillColor=none;align=center;verticalAlign=middle;whiteSpace=wrap;rounded=0;" parent="1" vertex="1"><mxGeometry x="620" y="1640" width="10" height="10" as="geometry"/></mxCell><mxCell id="643" value="" style="endArrow=oval;html=1;endFill=1;dashed=1;" parent="1" edge="1"><mxGeometry width="50" height="50" relative="1" as="geometry"><mxPoint x="820" y="1660" as="sourcePoint"/><mxPoint x="810" y="1650" as="targetPoint"/></mxGeometry></mxCell><mxCell id="644" value="" style="endArrow=oval;html=1;endFill=1;dashed=1;dashPattern=1 1;" parent="1" edge="1"><mxGeometry width="50" height="50" relative="1" as="geometry"><mxPoint x="840" y="1680" as="sourcePoint"/><mxPoint x="820" y="1660" as="targetPoint"/></mxGeometry></mxCell><mxCell id="645" value="" style="endArrow=oval;html=1;endFill=1;" parent="1" edge="1"><mxGeometry width="50" height="50" relative="1" as="geometry"><mxPoint x="880" y="1720" as="sourcePoint"/><mxPoint x="840" y="1680" as="targetPoint"/></mxGeometry></mxCell><mxCell id="646" value="" style="endArrow=oval;html=1;endFill=1;dashed=1;dashPattern=1 1;" parent="1" edge="1"><mxGeometry width="50" height="50" relative="1" as="geometry"><mxPoint x="840" y="1680" as="sourcePoint"/><mxPoint x="860" y="1660" as="targetPoint"/></mxGeometry></mxCell><mxCell id="647" value="" style="endArrow=oval;html=1;endFill=1;dashed=1;" parent="1" edge="1"><mxGeometry width="50" height="50" relative="1" as="geometry"><mxPoint x="820" y="1660" as="sourcePoint"/><mxPoint x="830" y="1650" as="targetPoint"/></mxGeometry></mxCell><mxCell id="648" value="" style="endArrow=oval;html=1;endFill=1;dashed=1;" parent="1" edge="1"><mxGeometry width="50" height="50" relative="1" as="geometry"><mxPoint x="860" y="1660" as="sourcePoint"/><mxPoint x="850" y="1650" as="targetPoint"/></mxGeometry></mxCell><mxCell id="649" value="" style="endArrow=oval;html=1;endFill=1;dashed=1;" parent="1" edge="1"><mxGeometry width="50" height="50" relative="1" as="geometry"><mxPoint x="860" y="1660" as="sourcePoint"/><mxPoint x="870" y="1650" as="targetPoint"/></mxGeometry></mxCell><mxCell id="650" value="" style="endArrow=oval;html=1;endFill=1;" parent="1" edge="1"><mxGeometry width="50" height="50" relative="1" as="geometry"><mxPoint x="920" y="1680" as="sourcePoint"/><mxPoint x="900" y="1660" as="targetPoint"/></mxGeometry></mxCell><mxCell id="651" value="" style="endArrow=oval;html=1;endFill=1;" parent="1" source="654" edge="1"><mxGeometry width="50" height="50" relative="1" as="geometry"><mxPoint x="900" y="1660" as="sourcePoint"/><mxPoint x="940" y="1660" as="targetPoint"/></mxGeometry></mxCell><mxCell id="652" value="" style="endArrow=oval;html=1;endFill=1;" parent="1" edge="1"><mxGeometry width="50" height="50" relative="1" as="geometry"><mxPoint x="880" y="1720" as="sourcePoint"/><mxPoint x="920" y="1680" as="targetPoint"/></mxGeometry></mxCell><mxCell id="653" value="" style="endArrow=oval;html=1;endFill=1;" parent="1" edge="1"><mxGeometry width="50" height="50" relative="1" as="geometry"><mxPoint x="800" y="1800" as="sourcePoint"/><mxPoint x="880" y="1720" as="targetPoint"/></mxGeometry></mxCell><mxCell id="654" value="" style="ellipse;whiteSpace=wrap;html=1;fillColor=none;strokeColor=#4D9900;" parent="1" vertex="1"><mxGeometry x="910" y="1670" width="20" height="20" as="geometry"/></mxCell><mxCell id="655" value="a" style="text;html=1;strokeColor=none;fillColor=none;align=center;verticalAlign=middle;whiteSpace=wrap;rounded=0;" parent="1" vertex="1"><mxGeometry x="890" y="1640" width="10" height="10" as="geometry"/></mxCell><mxCell id="656" value="b" style="text;html=1;strokeColor=none;fillColor=none;align=center;verticalAlign=middle;whiteSpace=wrap;rounded=0;" parent="1" vertex="1"><mxGeometry x="915" y="1690" width="10" height="10" as="geometry"/></mxCell><mxCell id="657" value="с" style="text;html=1;strokeColor=none;fillColor=none;align=center;verticalAlign=middle;whiteSpace=wrap;rounded=0;" parent="1" vertex="1"><mxGeometry x="940" y="1640" width="10" height="10" as="geometry"/></mxCell><mxCell id="658" value="" style="endArrow=oval;html=1;endFill=1;dashed=1;" parent="1" edge="1"><mxGeometry width="50" height="50" relative="1" as="geometry"><mxPoint x="820" y="1460" as="sourcePoint"/><mxPoint x="810" y="1450" as="targetPoint"/></mxGeometry></mxCell><mxCell id="659" value="" style="endArrow=oval;html=1;endFill=1;dashed=1;dashPattern=1 1;" parent="1" edge="1"><mxGeometry width="50" height="50" relative="1" as="geometry"><mxPoint x="840" y="1480" as="sourcePoint"/><mxPoint x="820" y="1460" as="targetPoint"/></mxGeometry></mxCell><mxCell id="660" value="" style="endArrow=oval;html=1;endFill=1;" parent="1" edge="1"><mxGeometry width="50" height="50" relative="1" as="geometry"><mxPoint x="880" y="1520" as="sourcePoint"/><mxPoint x="840" y="1480" as="targetPoint"/></mxGeometry></mxCell><mxCell id="661" value="" style="endArrow=oval;html=1;endFill=1;dashed=1;dashPattern=1 1;" parent="1" edge="1"><mxGeometry width="50" height="50" relative="1" as="geometry"><mxPoint x="840" y="1480" as="sourcePoint"/><mxPoint x="860" y="1460" as="targetPoint"/></mxGeometry></mxCell><mxCell id="662" value="" style="endArrow=oval;html=1;endFill=1;dashed=1;" parent="1" edge="1"><mxGeometry width="50" height="50" relative="1" as="geometry"><mxPoint x="820" y="1460" as="sourcePoint"/><mxPoint x="830" y="1450" as="targetPoint"/></mxGeometry></mxCell><mxCell id="663" value="" style="endArrow=oval;html=1;endFill=1;dashed=1;" parent="1" edge="1"><mxGeometry width="50" height="50" relative="1" as="geometry"><mxPoint x="860" y="1460" as="sourcePoint"/><mxPoint x="850" y="1450" as="targetPoint"/></mxGeometry></mxCell><mxCell id="664" value="" style="endArrow=oval;html=1;endFill=1;dashed=1;" parent="1" edge="1"><mxGeometry width="50" height="50" relative="1" as="geometry"><mxPoint x="860" y="1460" as="sourcePoint"/><mxPoint x="870" y="1450" as="targetPoint"/></mxGeometry></mxCell><mxCell id="665" value="" style="endArrow=oval;html=1;endFill=1;" parent="1" edge="1"><mxGeometry width="50" height="50" relative="1" as="geometry"><mxPoint x="920" y="1480" as="sourcePoint"/><mxPoint x="900" y="1460" as="targetPoint"/></mxGeometry></mxCell><mxCell id="666" value="" style="endArrow=oval;html=1;endFill=1;" parent="1" edge="1"><mxGeometry width="50" height="50" relative="1" as="geometry"><mxPoint x="900" y="1460" as="sourcePoint"/><mxPoint x="890" y="1450" as="targetPoint"/></mxGeometry></mxCell><mxCell id="667" value="" style="endArrow=oval;html=1;endFill=1;" parent="1" edge="1"><mxGeometry width="50" height="50" relative="1" as="geometry"><mxPoint x="880" y="1520" as="sourcePoint"/><mxPoint x="920" y="1480" as="targetPoint"/></mxGeometry></mxCell><mxCell id="668" value="" style="endArrow=oval;html=1;endFill=1;" parent="1" edge="1"><mxGeometry width="50" height="50" relative="1" as="geometry"><mxPoint x="800" y="1600" as="sourcePoint"/><mxPoint x="880" y="1520" as="targetPoint"/></mxGeometry></mxCell><mxCell id="669" value="" style="ellipse;whiteSpace=wrap;html=1;fillColor=none;strokeColor=#4D9900;" parent="1" vertex="1"><mxGeometry x="910" y="1470" width="20" height="20" as="geometry"/></mxCell><mxCell id="670" value="a" style="text;html=1;strokeColor=none;fillColor=none;align=center;verticalAlign=middle;whiteSpace=wrap;rounded=0;" parent="1" vertex="1"><mxGeometry x="880" y="1430" width="10" height="10" as="geometry"/></mxCell><mxCell id="671" value="b" style="text;html=1;strokeColor=none;fillColor=none;align=center;verticalAlign=middle;whiteSpace=wrap;rounded=0;" parent="1" vertex="1"><mxGeometry x="890" y="1460" width="10" height="10" as="geometry"/></mxCell><mxCell id="673" value="с" style="text;html=1;strokeColor=none;fillColor=none;align=center;verticalAlign=middle;whiteSpace=wrap;rounded=0;" parent="1" vertex="1"><mxGeometry x="925" y="1490" width="10" height="10" as="geometry"/></mxCell><mxCell id="674" value="" style="endArrow=oval;html=1;endFill=1;exitX=1;exitY=0;exitDx=0;exitDy=0;" parent="1" source="671" edge="1"><mxGeometry width="50" height="50" relative="1" as="geometry"><mxPoint x="910" y="1470" as="sourcePoint"/><mxPoint x="910" y="1450" as="targetPoint"/></mxGeometry></mxCell><mxCell id="675" value="" style="endArrow=oval;html=1;endFill=1;" parent="1" edge="1"><mxGeometry width="50" height="50" relative="1" as="geometry"><mxPoint x="940" y="1660" as="sourcePoint"/><mxPoint x="930" y="1650" as="targetPoint"/></mxGeometry></mxCell><mxCell id="677" value="d" style="text;html=1;strokeColor=none;fillColor=none;align=center;verticalAlign=middle;whiteSpace=wrap;rounded=0;" parent="1" vertex="1"><mxGeometry x="910" y="1430" width="10" height="10" as="geometry"/></mxCell><mxCell id="678" value="d" style="text;html=1;strokeColor=none;fillColor=none;align=center;verticalAlign=middle;whiteSpace=wrap;rounded=0;" parent="1" vertex="1"><mxGeometry x="1095" y="1690" width="10" height="10" as="geometry"/></mxCell><mxCell id="679" value="" style="shape=curlyBracket;whiteSpace=wrap;html=1;rounded=1;flipH=1;fillColor=none;rotation=90;size=0.37499999999999434;" parent="1" vertex="1"><mxGeometry x="485" y="2022.5" width="20" height="295" as="geometry"/></mxCell><mxCell id="680" value="все ситуации когда нет левой ветви но есть правая &lt;br&gt;при удалении узла" style="text;html=1;align=center;verticalAlign=middle;resizable=0;points=[];autosize=1;strokeColor=none;fillColor=none;" parent="1" vertex="1"><mxGeometry x="345" y="2180" width="300" height="30" as="geometry"/></mxCell><mxCell id="925" value="" style="shape=flexArrow;endArrow=classic;startArrow=classic;html=1;rounded=0;dashed=1;strokeColor=#990000;elbow=vertical;" parent="1" edge="1"><mxGeometry width="100" height="100" relative="1" as="geometry"><mxPoint x="200" y="1400" as="sourcePoint"/><mxPoint x="1410" y="1400" as="targetPoint"/><Array as="points"><mxPoint x="200" y="1290"/><mxPoint x="1410" y="1290"/></Array></mxGeometry></mxCell><mxCell id="979" value="" style="endArrow=oval;html=1;endFill=1;" parent="1" edge="1"><mxGeometry width="50" height="50" relative="1" as="geometry"><mxPoint x="1440" y="1560.0000000000005" as="sourcePoint"/><mxPoint x="1360" y="1480" as="targetPoint"/></mxGeometry></mxCell><mxCell id="980" value="" style="endArrow=oval;html=1;endFill=1;strokeColor=#990000;" parent="1" edge="1"><mxGeometry width="50" height="50" relative="1" as="geometry"><mxPoint x="1360" y="1480" as="sourcePoint"/><mxPoint x="1400" y="1440" as="targetPoint"/></mxGeometry></mxCell><mxCell id="981" value="" style="endArrow=oval;dashed=1;html=1;endFill=1;" parent="1" edge="1"><mxGeometry width="50" height="50" relative="1" as="geometry"><mxPoint x="1320" y="1440" as="sourcePoint"/><mxPoint x="1300" y="1420" as="targetPoint"/></mxGeometry></mxCell><mxCell id="982" value="" style="endArrow=oval;dashed=1;html=1;endFill=1;" parent="1" edge="1"><mxGeometry width="50" height="50" relative="1" as="geometry"><mxPoint x="1360" y="1480" as="sourcePoint"/><mxPoint x="1320" y="1440" as="targetPoint"/></mxGeometry></mxCell><mxCell id="983" value="" style="endArrow=oval;dashed=1;html=1;endFill=1;" parent="1" edge="1"><mxGeometry width="50" height="50" relative="1" as="geometry"><mxPoint x="1320" y="1440" as="sourcePoint"/><mxPoint x="1340" y="1420" as="targetPoint"/></mxGeometry></mxCell><mxCell id="984" value="" style="endArrow=oval;dashed=1;html=1;endFill=1;" parent="1" edge="1"><mxGeometry width="50" height="50" relative="1" as="geometry"><mxPoint x="1460" y="1420" as="sourcePoint"/><mxPoint x="1450" y="1410" as="targetPoint"/></mxGeometry></mxCell><mxCell id="985" value="" style="endArrow=oval;dashed=1;html=1;endFill=1;" parent="1" edge="1"><mxGeometry width="50" height="50" relative="1" as="geometry"><mxPoint x="1480" y="1440" as="sourcePoint"/><mxPoint x="1460" y="1420" as="targetPoint"/></mxGeometry></mxCell><mxCell id="986" value="" style="endArrow=oval;dashed=1;html=1;endFill=1;" parent="1" edge="1"><mxGeometry width="50" height="50" relative="1" as="geometry"><mxPoint x="1520" y="1480" as="sourcePoint"/><mxPoint x="1480" y="1440" as="targetPoint"/></mxGeometry></mxCell><mxCell id="987" value="" style="endArrow=oval;dashed=1;html=1;endFill=1;" parent="1" edge="1"><mxGeometry width="50" height="50" relative="1" as="geometry"><mxPoint x="1480" y="1440" as="sourcePoint"/><mxPoint x="1500" y="1420" as="targetPoint"/></mxGeometry></mxCell><mxCell id="988" value="" style="endArrow=oval;dashed=1;html=1;endFill=1;" parent="1" edge="1"><mxGeometry width="50" height="50" relative="1" as="geometry"><mxPoint x="1460" y="1420" as="sourcePoint"/><mxPoint x="1470" y="1410" as="targetPoint"/></mxGeometry></mxCell><mxCell id="989" value="" style="endArrow=oval;dashed=1;html=1;endFill=1;" parent="1" edge="1"><mxGeometry width="50" height="50" relative="1" as="geometry"><mxPoint x="1500" y="1420" as="sourcePoint"/><mxPoint x="1490" y="1410" as="targetPoint"/></mxGeometry></mxCell><mxCell id="990" value="" style="endArrow=oval;dashed=1;html=1;endFill=1;" parent="1" edge="1"><mxGeometry width="50" height="50" relative="1" as="geometry"><mxPoint x="1500" y="1420" as="sourcePoint"/><mxPoint x="1510" y="1410" as="targetPoint"/></mxGeometry></mxCell><mxCell id="991" value="" style="endArrow=oval;dashed=1;html=1;endFill=1;" parent="1" edge="1"><mxGeometry width="50" height="50" relative="1" as="geometry"><mxPoint x="1540" y="1420" as="sourcePoint"/><mxPoint x="1530" y="1410" as="targetPoint"/></mxGeometry></mxCell><mxCell id="992" value="" style="endArrow=oval;dashed=1;html=1;endFill=1;" parent="1" edge="1"><mxGeometry width="50" height="50" relative="1" as="geometry"><mxPoint x="1560" y="1440" as="sourcePoint"/><mxPoint x="1540" y="1420" as="targetPoint"/></mxGeometry></mxCell><mxCell id="993" value="" style="endArrow=oval;dashed=1;html=1;endFill=1;" parent="1" edge="1"><mxGeometry width="50" height="50" relative="1" as="geometry"><mxPoint x="1560" y="1440" as="sourcePoint"/><mxPoint x="1580" y="1420" as="targetPoint"/></mxGeometry></mxCell><mxCell id="994" value="" style="endArrow=oval;dashed=1;html=1;endFill=1;" parent="1" edge="1"><mxGeometry width="50" height="50" relative="1" as="geometry"><mxPoint x="1540" y="1420" as="sourcePoint"/><mxPoint x="1550" y="1410" as="targetPoint"/></mxGeometry></mxCell><mxCell id="995" value="" style="endArrow=oval;dashed=1;html=1;endFill=1;" parent="1" edge="1"><mxGeometry width="50" height="50" relative="1" as="geometry"><mxPoint x="1580" y="1420" as="sourcePoint"/><mxPoint x="1570" y="1410" as="targetPoint"/></mxGeometry></mxCell><mxCell id="996" value="" style="endArrow=oval;dashed=1;html=1;endFill=1;" parent="1" edge="1"><mxGeometry width="50" height="50" relative="1" as="geometry"><mxPoint x="1580" y="1420" as="sourcePoint"/><mxPoint x="1590" y="1410" as="targetPoint"/></mxGeometry></mxCell><mxCell id="997" value="" style="endArrow=oval;dashed=1;html=1;endFill=1;" parent="1" edge="1"><mxGeometry width="50" height="50" relative="1" as="geometry"><mxPoint x="1520" y="1480" as="sourcePoint"/><mxPoint x="1560" y="1440" as="targetPoint"/></mxGeometry></mxCell><mxCell id="998" value="" style="endArrow=oval;html=1;endFill=1;" parent="1" edge="1"><mxGeometry width="50" height="50" relative="1" as="geometry"><mxPoint x="1440" y="1559.9999999999995" as="sourcePoint"/><mxPoint x="1520" y="1479.9999999999995" as="targetPoint"/></mxGeometry></mxCell><mxCell id="999" value="" style="endArrow=oval;html=1;endFill=1;strokeColor=#990000;" parent="1" edge="1"><mxGeometry width="50" height="50" relative="1" as="geometry"><mxPoint x="1400" y="1600.000000000001" as="sourcePoint"/><mxPoint x="1440" y="1560.000000000001" as="targetPoint"/></mxGeometry></mxCell><mxCell id="1000" value="" style="endArrow=oval;html=1;endFill=1;" parent="1" edge="1"><mxGeometry width="50" height="50" relative="1" as="geometry"><mxPoint x="2160" y="1560.0000000000005" as="sourcePoint"/><mxPoint x="2080" y="1480" as="targetPoint"/></mxGeometry></mxCell><mxCell id="1001" value="" style="endArrow=oval;html=1;endFill=1;strokeColor=#990000;" parent="1" edge="1"><mxGeometry width="50" height="50" relative="1" as="geometry"><mxPoint x="2080" y="1480" as="sourcePoint"/><mxPoint x="2120" y="1440" as="targetPoint"/></mxGeometry></mxCell><mxCell id="1002" value="" style="endArrow=oval;dashed=1;html=1;endFill=1;" parent="1" edge="1"><mxGeometry width="50" height="50" relative="1" as="geometry"><mxPoint x="2040" y="1440" as="sourcePoint"/><mxPoint x="2020" y="1420" as="targetPoint"/></mxGeometry></mxCell><mxCell id="1003" value="" style="endArrow=oval;dashed=1;html=1;endFill=1;" parent="1" edge="1"><mxGeometry width="50" height="50" relative="1" as="geometry"><mxPoint x="2080" y="1480" as="sourcePoint"/><mxPoint x="2040" y="1440" as="targetPoint"/></mxGeometry></mxCell><mxCell id="1004" value="" style="endArrow=oval;dashed=1;html=1;endFill=1;" parent="1" edge="1"><mxGeometry width="50" height="50" relative="1" as="geometry"><mxPoint x="2040" y="1440" as="sourcePoint"/><mxPoint x="2060" y="1420" as="targetPoint"/></mxGeometry></mxCell><mxCell id="1005" value="" style="endArrow=oval;dashed=1;html=1;endFill=1;" parent="1" edge="1"><mxGeometry width="50" height="50" relative="1" as="geometry"><mxPoint x="2180" y="1420" as="sourcePoint"/><mxPoint x="2170" y="1410" as="targetPoint"/></mxGeometry></mxCell><mxCell id="1006" value="" style="endArrow=oval;dashed=1;html=1;endFill=1;" parent="1" edge="1"><mxGeometry width="50" height="50" relative="1" as="geometry"><mxPoint x="2200" y="1440" as="sourcePoint"/><mxPoint x="2180" y="1420" as="targetPoint"/></mxGeometry></mxCell><mxCell id="1007" value="" style="endArrow=oval;dashed=1;html=1;endFill=1;" parent="1" edge="1"><mxGeometry width="50" height="50" relative="1" as="geometry"><mxPoint x="2240" y="1480" as="sourcePoint"/><mxPoint x="2200" y="1440" as="targetPoint"/></mxGeometry></mxCell><mxCell id="1008" value="" style="endArrow=oval;dashed=1;html=1;endFill=1;" parent="1" edge="1"><mxGeometry width="50" height="50" relative="1" as="geometry"><mxPoint x="2200" y="1440" as="sourcePoint"/><mxPoint x="2220" y="1420" as="targetPoint"/></mxGeometry></mxCell><mxCell id="1009" value="" style="endArrow=oval;dashed=1;html=1;endFill=1;" parent="1" edge="1"><mxGeometry width="50" height="50" relative="1" as="geometry"><mxPoint x="2180" y="1420" as="sourcePoint"/><mxPoint x="2190" y="1410" as="targetPoint"/></mxGeometry></mxCell><mxCell id="1010" value="" style="endArrow=oval;dashed=1;html=1;endFill=1;" parent="1" edge="1"><mxGeometry width="50" height="50" relative="1" as="geometry"><mxPoint x="2220" y="1420" as="sourcePoint"/><mxPoint x="2210" y="1410" as="targetPoint"/></mxGeometry></mxCell><mxCell id="1011" value="" style="endArrow=oval;dashed=1;html=1;endFill=1;" parent="1" edge="1"><mxGeometry width="50" height="50" relative="1" as="geometry"><mxPoint x="2220" y="1420" as="sourcePoint"/><mxPoint x="2230" y="1410" as="targetPoint"/></mxGeometry></mxCell><mxCell id="1012" value="" style="endArrow=oval;dashed=1;html=1;endFill=1;" parent="1" edge="1"><mxGeometry width="50" height="50" relative="1" as="geometry"><mxPoint x="2260" y="1420" as="sourcePoint"/><mxPoint x="2250" y="1410" as="targetPoint"/></mxGeometry></mxCell><mxCell id="1013" value="" style="endArrow=oval;dashed=1;html=1;endFill=1;" parent="1" edge="1"><mxGeometry width="50" height="50" relative="1" as="geometry"><mxPoint x="2280" y="1440" as="sourcePoint"/><mxPoint x="2260" y="1420" as="targetPoint"/></mxGeometry></mxCell><mxCell id="1014" value="" style="endArrow=oval;dashed=1;html=1;endFill=1;" parent="1" edge="1"><mxGeometry width="50" height="50" relative="1" as="geometry"><mxPoint x="2280" y="1440" as="sourcePoint"/><mxPoint x="2300" y="1420" as="targetPoint"/></mxGeometry></mxCell><mxCell id="1015" value="" style="endArrow=oval;dashed=1;html=1;endFill=1;" parent="1" edge="1"><mxGeometry width="50" height="50" relative="1" as="geometry"><mxPoint x="2260" y="1420" as="sourcePoint"/><mxPoint x="2270" y="1410" as="targetPoint"/></mxGeometry></mxCell><mxCell id="1016" value="" style="endArrow=oval;dashed=1;html=1;endFill=1;" parent="1" edge="1"><mxGeometry width="50" height="50" relative="1" as="geometry"><mxPoint x="2300" y="1420" as="sourcePoint"/><mxPoint x="2290" y="1410" as="targetPoint"/></mxGeometry></mxCell><mxCell id="1017" value="" style="endArrow=oval;dashed=1;html=1;endFill=1;" parent="1" edge="1"><mxGeometry width="50" height="50" relative="1" as="geometry"><mxPoint x="2300" y="1420" as="sourcePoint"/><mxPoint x="2310" y="1410" as="targetPoint"/></mxGeometry></mxCell><mxCell id="1018" value="" style="endArrow=oval;dashed=1;html=1;endFill=1;" parent="1" edge="1"><mxGeometry width="50" height="50" relative="1" as="geometry"><mxPoint x="2240" y="1480" as="sourcePoint"/><mxPoint x="2280" y="1440" as="targetPoint"/></mxGeometry></mxCell><mxCell id="1019" value="" style="endArrow=oval;html=1;endFill=1;" parent="1" edge="1"><mxGeometry width="50" height="50" relative="1" as="geometry"><mxPoint x="2160" y="1559.9999999999995" as="sourcePoint"/><mxPoint x="2240" y="1479.9999999999995" as="targetPoint"/></mxGeometry></mxCell><mxCell id="1020" value="" style="endArrow=oval;html=1;endFill=1;strokeColor=#990000;" parent="1" edge="1"><mxGeometry width="50" height="50" relative="1" as="geometry"><mxPoint x="2120" y="1600.000000000001" as="sourcePoint"/><mxPoint x="2160" y="1560.000000000001" as="targetPoint"/></mxGeometry></mxCell><mxCell id="1021" value="" style="endArrow=oval;html=1;endFill=1;" parent="1" edge="1"><mxGeometry width="50" height="50" relative="1" as="geometry"><mxPoint x="2120" y="1440" as="sourcePoint"/><mxPoint x="2100" y="1420" as="targetPoint"/></mxGeometry></mxCell><mxCell id="1023" value="" style="endArrow=oval;dashed=1;html=1;endFill=1;" parent="1" edge="1"><mxGeometry width="50" height="50" relative="1" as="geometry"><mxPoint x="2020" y="1420" as="sourcePoint"/><mxPoint x="2010" y="1410" as="targetPoint"/></mxGeometry></mxCell><mxCell id="1024" value="" style="endArrow=oval;dashed=1;html=1;endFill=1;" parent="1" edge="1"><mxGeometry width="50" height="50" relative="1" as="geometry"><mxPoint x="2020" y="1420" as="sourcePoint"/><mxPoint x="2030" y="1410" as="targetPoint"/></mxGeometry></mxCell><mxCell id="1025" value="" style="endArrow=oval;dashed=1;html=1;endFill=1;" parent="1" edge="1"><mxGeometry width="50" height="50" relative="1" as="geometry"><mxPoint x="2060" y="1420" as="sourcePoint"/><mxPoint x="2050" y="1410" as="targetPoint"/></mxGeometry></mxCell><mxCell id="1026" value="" style="endArrow=oval;dashed=1;html=1;endFill=1;" parent="1" edge="1"><mxGeometry width="50" height="50" relative="1" as="geometry"><mxPoint x="2060" y="1420" as="sourcePoint"/><mxPoint x="2070" y="1410" as="targetPoint"/></mxGeometry></mxCell><mxCell id="1027" value="" style="endArrow=oval;html=1;endFill=1;" parent="1" edge="1"><mxGeometry width="50" height="50" relative="1" as="geometry"><mxPoint x="1800" y="1560" as="sourcePoint"/><mxPoint x="1720" y="1480" as="targetPoint"/></mxGeometry></mxCell><mxCell id="1028" value="" style="endArrow=oval;html=1;endFill=1;strokeColor=#000000;" parent="1" edge="1"><mxGeometry width="50" height="50" relative="1" as="geometry"><mxPoint x="1720" y="1480" as="sourcePoint"/><mxPoint x="1760" y="1440" as="targetPoint"/></mxGeometry></mxCell><mxCell id="1029" value="" style="endArrow=oval;dashed=1;html=1;endFill=1;" parent="1" edge="1"><mxGeometry width="50" height="50" relative="1" as="geometry"><mxPoint x="1680" y="1440" as="sourcePoint"/><mxPoint x="1660" y="1420" as="targetPoint"/></mxGeometry></mxCell><mxCell id="1030" value="" style="endArrow=oval;dashed=1;html=1;endFill=1;" parent="1" edge="1"><mxGeometry width="50" height="50" relative="1" as="geometry"><mxPoint x="1720" y="1480" as="sourcePoint"/><mxPoint x="1680" y="1440" as="targetPoint"/></mxGeometry></mxCell><mxCell id="1031" value="" style="endArrow=oval;dashed=1;html=1;endFill=1;" parent="1" edge="1"><mxGeometry width="50" height="50" relative="1" as="geometry"><mxPoint x="1680" y="1440" as="sourcePoint"/><mxPoint x="1700" y="1420" as="targetPoint"/></mxGeometry></mxCell><mxCell id="1032" value="" style="endArrow=oval;dashed=1;html=1;endFill=1;" parent="1" edge="1"><mxGeometry width="50" height="50" relative="1" as="geometry"><mxPoint x="1820" y="1420" as="sourcePoint"/><mxPoint x="1810" y="1410" as="targetPoint"/></mxGeometry></mxCell><mxCell id="1033" value="" style="endArrow=oval;dashed=1;html=1;endFill=1;" parent="1" edge="1"><mxGeometry width="50" height="50" relative="1" as="geometry"><mxPoint x="1840" y="1440" as="sourcePoint"/><mxPoint x="1820" y="1420" as="targetPoint"/></mxGeometry></mxCell><mxCell id="1034" value="" style="endArrow=oval;dashed=1;html=1;endFill=1;" parent="1" edge="1"><mxGeometry width="50" height="50" relative="1" as="geometry"><mxPoint x="1880" y="1480" as="sourcePoint"/><mxPoint x="1840" y="1440" as="targetPoint"/></mxGeometry></mxCell><mxCell id="1035" value="" style="endArrow=oval;dashed=1;html=1;endFill=1;" parent="1" edge="1"><mxGeometry width="50" height="50" relative="1" as="geometry"><mxPoint x="1840" y="1440" as="sourcePoint"/><mxPoint x="1860" y="1420" as="targetPoint"/></mxGeometry></mxCell><mxCell id="1036" value="" style="endArrow=oval;dashed=1;html=1;endFill=1;" parent="1" edge="1"><mxGeometry width="50" height="50" relative="1" as="geometry"><mxPoint x="1820" y="1420" as="sourcePoint"/><mxPoint x="1830" y="1410" as="targetPoint"/></mxGeometry></mxCell><mxCell id="1037" value="" style="endArrow=oval;dashed=1;html=1;endFill=1;" parent="1" edge="1"><mxGeometry width="50" height="50" relative="1" as="geometry"><mxPoint x="1860" y="1420" as="sourcePoint"/><mxPoint x="1850" y="1410" as="targetPoint"/></mxGeometry></mxCell><mxCell id="1038" value="" style="endArrow=oval;dashed=1;html=1;endFill=1;" parent="1" edge="1"><mxGeometry width="50" height="50" relative="1" as="geometry"><mxPoint x="1860" y="1420" as="sourcePoint"/><mxPoint x="1870" y="1410" as="targetPoint"/></mxGeometry></mxCell><mxCell id="1039" value="" style="endArrow=oval;dashed=1;html=1;endFill=1;" parent="1" edge="1"><mxGeometry width="50" height="50" relative="1" as="geometry"><mxPoint x="1900" y="1420" as="sourcePoint"/><mxPoint x="1890" y="1410" as="targetPoint"/></mxGeometry></mxCell><mxCell id="1040" value="" style="endArrow=oval;dashed=1;html=1;endFill=1;" parent="1" edge="1"><mxGeometry width="50" height="50" relative="1" as="geometry"><mxPoint x="1920" y="1440" as="sourcePoint"/><mxPoint x="1900" y="1420" as="targetPoint"/></mxGeometry></mxCell><mxCell id="1041" value="" style="endArrow=oval;dashed=1;html=1;endFill=1;" parent="1" edge="1"><mxGeometry width="50" height="50" relative="1" as="geometry"><mxPoint x="1920" y="1440" as="sourcePoint"/><mxPoint x="1940" y="1420" as="targetPoint"/></mxGeometry></mxCell><mxCell id="1042" value="" style="endArrow=oval;dashed=1;html=1;endFill=1;" parent="1" edge="1"><mxGeometry width="50" height="50" relative="1" as="geometry"><mxPoint x="1900" y="1420" as="sourcePoint"/><mxPoint x="1910" y="1410" as="targetPoint"/></mxGeometry></mxCell><mxCell id="1043" value="" style="endArrow=oval;dashed=1;html=1;endFill=1;" parent="1" edge="1"><mxGeometry width="50" height="50" relative="1" as="geometry"><mxPoint x="1940" y="1420" as="sourcePoint"/><mxPoint x="1930" y="1410" as="targetPoint"/></mxGeometry></mxCell><mxCell id="1044" value="" style="endArrow=oval;dashed=1;html=1;endFill=1;" parent="1" edge="1"><mxGeometry width="50" height="50" relative="1" as="geometry"><mxPoint x="1940" y="1420" as="sourcePoint"/><mxPoint x="1950" y="1410" as="targetPoint"/></mxGeometry></mxCell><mxCell id="1045" value="" style="endArrow=oval;dashed=1;html=1;endFill=1;" parent="1" edge="1"><mxGeometry width="50" height="50" relative="1" as="geometry"><mxPoint x="1880" y="1480" as="sourcePoint"/><mxPoint x="1920" y="1440" as="targetPoint"/></mxGeometry></mxCell><mxCell id="1046" value="" style="endArrow=oval;html=1;endFill=1;" parent="1" edge="1"><mxGeometry width="50" height="50" relative="1" as="geometry"><mxPoint x="1800" y="1559.9999999999995" as="sourcePoint"/><mxPoint x="1880" y="1479.9999999999995" as="targetPoint"/></mxGeometry></mxCell><mxCell id="1047" value="" style="endArrow=oval;html=1;endFill=1;strokeColor=#990000;" parent="1" edge="1"><mxGeometry width="50" height="50" relative="1" as="geometry"><mxPoint x="1760" y="1600.000000000001" as="sourcePoint"/><mxPoint x="1800" y="1560.000000000001" as="targetPoint"/></mxGeometry></mxCell><mxCell id="1048" value="" style="endArrow=oval;html=1;endFill=1;" parent="1" edge="1"><mxGeometry width="50" height="50" relative="1" as="geometry"><mxPoint x="1760" y="1440" as="sourcePoint"/><mxPoint x="1740" y="1420" as="targetPoint"/></mxGeometry></mxCell><mxCell id="1049" value="" style="endArrow=oval;dashed=1;html=1;endFill=1;" parent="1" edge="1"><mxGeometry width="50" height="50" relative="1" as="geometry"><mxPoint x="1660" y="1420" as="sourcePoint"/><mxPoint x="1650" y="1410" as="targetPoint"/></mxGeometry></mxCell><mxCell id="1050" value="" style="endArrow=oval;dashed=1;html=1;endFill=1;" parent="1" edge="1"><mxGeometry width="50" height="50" relative="1" as="geometry"><mxPoint x="1660" y="1420" as="sourcePoint"/><mxPoint x="1670" y="1410" as="targetPoint"/></mxGeometry></mxCell><mxCell id="1051" value="" style="endArrow=oval;dashed=1;html=1;endFill=1;" parent="1" edge="1"><mxGeometry width="50" height="50" relative="1" as="geometry"><mxPoint x="1700" y="1420" as="sourcePoint"/><mxPoint x="1690" y="1410" as="targetPoint"/></mxGeometry></mxCell><mxCell id="1052" value="" style="endArrow=oval;dashed=1;html=1;endFill=1;" parent="1" edge="1"><mxGeometry width="50" height="50" relative="1" as="geometry"><mxPoint x="1700" y="1420" as="sourcePoint"/><mxPoint x="1710" y="1410" as="targetPoint"/></mxGeometry></mxCell><mxCell id="1053" value="" style="endArrow=oval;html=1;endFill=1;strokeColor=#990000;" parent="1" edge="1"><mxGeometry width="50" height="50" relative="1" as="geometry"><mxPoint x="1760" y="1440" as="sourcePoint"/><mxPoint x="1780" y="1420" as="targetPoint"/></mxGeometry></mxCell><mxCell id="1054" value="" style="shape=flexArrow;endArrow=classic;startArrow=classic;html=1;rounded=0;dashed=1;strokeColor=#990000;elbow=vertical;" parent="1" edge="1"><mxGeometry width="100" height="100" relative="1" as="geometry"><mxPoint x="1560" y="1520" as="sourcePoint"/><mxPoint x="1690" y="1520" as="targetPoint"/></mxGeometry></mxCell><mxCell id="1056" value="" style="endArrow=none;html=1;endFill=0;dashed=1;" parent="1" edge="1"><mxGeometry width="50" height="50" relative="1" as="geometry"><mxPoint x="530" y="1650" as="sourcePoint"/><mxPoint x="535" y="1645" as="targetPoint"/></mxGeometry></mxCell><mxCell id="1057" value="" style="endArrow=none;html=1;endFill=0;dashed=1;" parent="1" edge="1"><mxGeometry width="50" height="50" relative="1" as="geometry"><mxPoint x="530" y="1650" as="sourcePoint"/><mxPoint x="525" y="1645" as="targetPoint"/></mxGeometry></mxCell><mxCell id="1058" value="" style="endArrow=none;html=1;endFill=0;dashed=1;" parent="1" edge="1"><mxGeometry width="50" height="50" relative="1" as="geometry"><mxPoint x="510" y="1650" as="sourcePoint"/><mxPoint x="515" y="1645" as="targetPoint"/></mxGeometry></mxCell><mxCell id="1059" value="" style="endArrow=none;html=1;endFill=0;dashed=1;" parent="1" edge="1"><mxGeometry width="50" height="50" relative="1" as="geometry"><mxPoint x="490" y="1650" as="sourcePoint"/><mxPoint x="485" y="1645" as="targetPoint"/></mxGeometry></mxCell><mxCell id="1060" value="" style="endArrow=none;html=1;endFill=0;dashed=1;" parent="1" edge="1"><mxGeometry width="50" height="50" relative="1" as="geometry"><mxPoint x="510" y="1650" as="sourcePoint"/><mxPoint x="505" y="1645" as="targetPoint"/></mxGeometry></mxCell><mxCell id="1061" value="" style="endArrow=none;html=1;endFill=0;dashed=1;" parent="1" edge="1"><mxGeometry width="50" height="50" relative="1" as="geometry"><mxPoint x="490" y="1650" as="sourcePoint"/><mxPoint x="495" y="1645" as="targetPoint"/></mxGeometry></mxCell><mxCell id="1062" value="" style="endArrow=none;html=1;endFill=0;dashed=1;" parent="1" edge="1"><mxGeometry width="50" height="50" relative="1" as="geometry"><mxPoint x="550" y="1450.0000000000002" as="sourcePoint"/><mxPoint x="555" y="1445" as="targetPoint"/></mxGeometry></mxCell><mxCell id="1063" value="" style="endArrow=none;html=1;endFill=0;dashed=1;" parent="1" edge="1"><mxGeometry width="50" height="50" relative="1" as="geometry"><mxPoint x="550" y="1450.0000000000002" as="sourcePoint"/><mxPoint x="545" y="1445" as="targetPoint"/></mxGeometry></mxCell><mxCell id="1064" value="" style="endArrow=none;html=1;endFill=0;dashed=1;" parent="1" edge="1"><mxGeometry width="50" height="50" relative="1" as="geometry"><mxPoint x="530" y="1450.0000000000002" as="sourcePoint"/><mxPoint x="535" y="1445" as="targetPoint"/></mxGeometry></mxCell><mxCell id="1065" value="" style="endArrow=none;html=1;endFill=0;dashed=1;" parent="1" edge="1"><mxGeometry width="50" height="50" relative="1" as="geometry"><mxPoint x="510" y="1450.0000000000002" as="sourcePoint"/><mxPoint x="505" y="1445" as="targetPoint"/></mxGeometry></mxCell><mxCell id="1066" value="" style="endArrow=none;html=1;endFill=0;dashed=1;" parent="1" edge="1"><mxGeometry width="50" height="50" relative="1" as="geometry"><mxPoint x="530" y="1450.0000000000002" as="sourcePoint"/><mxPoint x="525" y="1445" as="targetPoint"/></mxGeometry></mxCell><mxCell id="1067" value="" style="endArrow=none;html=1;endFill=0;dashed=1;" parent="1" edge="1"><mxGeometry width="50" height="50" relative="1" as="geometry"><mxPoint x="510" y="1450.0000000000002" as="sourcePoint"/><mxPoint x="515" y="1445" as="targetPoint"/></mxGeometry></mxCell><mxCell id="1074" value="" style="endArrow=none;html=1;endFill=0;dashed=1;" parent="1" edge="1"><mxGeometry width="50" height="50" relative="1" as="geometry"><mxPoint x="550" y="1650" as="sourcePoint"/><mxPoint x="555" y="1645" as="targetPoint"/></mxGeometry></mxCell><mxCell id="1075" value="" style="endArrow=none;html=1;endFill=0;dashed=1;" parent="1" edge="1"><mxGeometry width="50" height="50" relative="1" as="geometry"><mxPoint x="550" y="1650" as="sourcePoint"/><mxPoint x="545" y="1645" as="targetPoint"/></mxGeometry></mxCell><mxCell id="1076" value="" style="endArrow=none;html=1;endFill=0;dashed=1;" parent="1" edge="1"><mxGeometry width="50" height="50" relative="1" as="geometry"><mxPoint x="490" y="1450" as="sourcePoint"/><mxPoint x="495" y="1445" as="targetPoint"/></mxGeometry></mxCell><mxCell id="1077" value="" style="endArrow=none;html=1;endFill=0;dashed=1;" parent="1" edge="1"><mxGeometry width="50" height="50" relative="1" as="geometry"><mxPoint x="490" y="1450" as="sourcePoint"/><mxPoint x="485" y="1445" as="targetPoint"/></mxGeometry></mxCell><mxCell id="1078" value="" style="endArrow=none;html=1;endFill=0;dashed=1;" parent="1" edge="1"><mxGeometry width="50" height="50" relative="1" as="geometry"><mxPoint x="710" y="1450.0000000000002" as="sourcePoint"/><mxPoint x="714.9999999999998" y="1445" as="targetPoint"/></mxGeometry></mxCell><mxCell id="1079" value="" style="endArrow=none;html=1;endFill=0;dashed=1;" parent="1" edge="1"><mxGeometry width="50" height="50" relative="1" as="geometry"><mxPoint x="710" y="1450.0000000000002" as="sourcePoint"/><mxPoint x="705" y="1445" as="targetPoint"/></mxGeometry></mxCell><mxCell id="1080" value="" style="endArrow=none;html=1;endFill=0;dashed=1;" parent="1" edge="1"><mxGeometry width="50" height="50" relative="1" as="geometry"><mxPoint x="690" y="1450.0000000000002" as="sourcePoint"/><mxPoint x="695" y="1445" as="targetPoint"/></mxGeometry></mxCell><mxCell id="1081" value="" style="endArrow=none;html=1;endFill=0;dashed=1;" parent="1" edge="1"><mxGeometry width="50" height="50" relative="1" as="geometry"><mxPoint x="670" y="1450.0000000000002" as="sourcePoint"/><mxPoint x="665" y="1445" as="targetPoint"/></mxGeometry></mxCell><mxCell id="1082" value="" style="endArrow=none;html=1;endFill=0;dashed=1;" parent="1" edge="1"><mxGeometry width="50" height="50" relative="1" as="geometry"><mxPoint x="690" y="1450.0000000000002" as="sourcePoint"/><mxPoint x="685" y="1445" as="targetPoint"/></mxGeometry></mxCell><mxCell id="1083" value="" style="endArrow=none;html=1;endFill=0;dashed=1;" parent="1" edge="1"><mxGeometry width="50" height="50" relative="1" as="geometry"><mxPoint x="670" y="1450.0000000000002" as="sourcePoint"/><mxPoint x="675" y="1445" as="targetPoint"/></mxGeometry></mxCell><mxCell id="1084" value="" style="endArrow=none;html=1;endFill=0;dashed=1;" parent="1" edge="1"><mxGeometry width="50" height="50" relative="1" as="geometry"><mxPoint x="650" y="1450" as="sourcePoint"/><mxPoint x="655" y="1445" as="targetPoint"/></mxGeometry></mxCell><mxCell id="1085" value="" style="endArrow=none;html=1;endFill=0;dashed=1;" parent="1" edge="1"><mxGeometry width="50" height="50" relative="1" as="geometry"><mxPoint x="650" y="1450" as="sourcePoint"/><mxPoint x="645" y="1445" as="targetPoint"/></mxGeometry></mxCell><mxCell id="1086" value="" style="endArrow=none;html=1;endFill=0;dashed=1;" parent="1" edge="1"><mxGeometry width="50" height="50" relative="1" as="geometry"><mxPoint x="870" y="1450.0000000000002" as="sourcePoint"/><mxPoint x="874.9999999999998" y="1445" as="targetPoint"/></mxGeometry></mxCell><mxCell id="1087" value="" style="endArrow=none;html=1;endFill=0;dashed=1;" parent="1" edge="1"><mxGeometry width="50" height="50" relative="1" as="geometry"><mxPoint x="870" y="1450.0000000000002" as="sourcePoint"/><mxPoint x="865" y="1445" as="targetPoint"/></mxGeometry></mxCell><mxCell id="1088" value="" style="endArrow=none;html=1;endFill=0;dashed=1;" parent="1" edge="1"><mxGeometry width="50" height="50" relative="1" as="geometry"><mxPoint x="850" y="1450.0000000000002" as="sourcePoint"/><mxPoint x="855" y="1445" as="targetPoint"/></mxGeometry></mxCell><mxCell id="1089" value="" style="endArrow=none;html=1;endFill=0;dashed=1;" parent="1" edge="1"><mxGeometry width="50" height="50" relative="1" as="geometry"><mxPoint x="830" y="1450.0000000000002" as="sourcePoint"/><mxPoint x="825" y="1445" as="targetPoint"/></mxGeometry></mxCell><mxCell id="1090" value="" style="endArrow=none;html=1;endFill=0;dashed=1;" parent="1" edge="1"><mxGeometry width="50" height="50" relative="1" as="geometry"><mxPoint x="850" y="1450.0000000000002" as="sourcePoint"/><mxPoint x="845" y="1445" as="targetPoint"/></mxGeometry></mxCell><mxCell id="1091" value="" style="endArrow=none;html=1;endFill=0;dashed=1;" parent="1" edge="1"><mxGeometry width="50" height="50" relative="1" as="geometry"><mxPoint x="830" y="1450.0000000000002" as="sourcePoint"/><mxPoint x="835" y="1445" as="targetPoint"/></mxGeometry></mxCell><mxCell id="1092" value="" style="endArrow=none;html=1;endFill=0;dashed=1;" parent="1" edge="1"><mxGeometry width="50" height="50" relative="1" as="geometry"><mxPoint x="810" y="1450" as="sourcePoint"/><mxPoint x="815" y="1445" as="targetPoint"/></mxGeometry></mxCell><mxCell id="1093" value="" style="endArrow=none;html=1;endFill=0;dashed=1;" parent="1" edge="1"><mxGeometry width="50" height="50" relative="1" as="geometry"><mxPoint x="810" y="1450" as="sourcePoint"/><mxPoint x="805" y="1445" as="targetPoint"/></mxGeometry></mxCell><mxCell id="1094" value="" style="endArrow=none;html=1;endFill=0;dashed=1;" parent="1" edge="1"><mxGeometry width="50" height="50" relative="1" as="geometry"><mxPoint x="710" y="1650.0000000000005" as="sourcePoint"/><mxPoint x="715" y="1645" as="targetPoint"/></mxGeometry></mxCell><mxCell id="1095" value="" style="endArrow=none;html=1;endFill=0;dashed=1;" parent="1" edge="1"><mxGeometry width="50" height="50" relative="1" as="geometry"><mxPoint x="710" y="1650.0000000000005" as="sourcePoint"/><mxPoint x="705" y="1645" as="targetPoint"/></mxGeometry></mxCell><mxCell id="1096" value="" style="endArrow=none;html=1;endFill=0;dashed=1;" parent="1" edge="1"><mxGeometry width="50" height="50" relative="1" as="geometry"><mxPoint x="690" y="1650.0000000000005" as="sourcePoint"/><mxPoint x="695" y="1645" as="targetPoint"/></mxGeometry></mxCell><mxCell id="1097" value="" style="endArrow=none;html=1;endFill=0;dashed=1;" parent="1" edge="1"><mxGeometry width="50" height="50" relative="1" as="geometry"><mxPoint x="670" y="1650.0000000000005" as="sourcePoint"/><mxPoint x="665" y="1645" as="targetPoint"/></mxGeometry></mxCell><mxCell id="1098" value="" style="endArrow=none;html=1;endFill=0;dashed=1;" parent="1" edge="1"><mxGeometry width="50" height="50" relative="1" as="geometry"><mxPoint x="690" y="1650.0000000000005" as="sourcePoint"/><mxPoint x="685" y="1645" as="targetPoint"/></mxGeometry></mxCell><mxCell id="1099" value="" style="endArrow=none;html=1;endFill=0;dashed=1;" parent="1" edge="1"><mxGeometry width="50" height="50" relative="1" as="geometry"><mxPoint x="670" y="1650.0000000000005" as="sourcePoint"/><mxPoint x="675" y="1645" as="targetPoint"/></mxGeometry></mxCell><mxCell id="1100" value="" style="endArrow=none;html=1;endFill=0;dashed=1;" parent="1" edge="1"><mxGeometry width="50" height="50" relative="1" as="geometry"><mxPoint x="650" y="1650" as="sourcePoint"/><mxPoint x="655" y="1645" as="targetPoint"/></mxGeometry></mxCell><mxCell id="1101" value="" style="endArrow=none;html=1;endFill=0;dashed=1;" parent="1" edge="1"><mxGeometry width="50" height="50" relative="1" as="geometry"><mxPoint x="650" y="1650" as="sourcePoint"/><mxPoint x="645" y="1645" as="targetPoint"/></mxGeometry></mxCell><mxCell id="1102" value="" style="endArrow=none;html=1;endFill=0;dashed=1;" parent="1" edge="1"><mxGeometry width="50" height="50" relative="1" as="geometry"><mxPoint x="870" y="1650.0000000000005" as="sourcePoint"/><mxPoint x="875" y="1645" as="targetPoint"/></mxGeometry></mxCell><mxCell id="1103" value="" style="endArrow=none;html=1;endFill=0;dashed=1;" parent="1" edge="1"><mxGeometry width="50" height="50" relative="1" as="geometry"><mxPoint x="870" y="1650.0000000000005" as="sourcePoint"/><mxPoint x="865" y="1645" as="targetPoint"/></mxGeometry></mxCell><mxCell id="1104" value="" style="endArrow=none;html=1;endFill=0;dashed=1;" parent="1" edge="1"><mxGeometry width="50" height="50" relative="1" as="geometry"><mxPoint x="850" y="1650.0000000000005" as="sourcePoint"/><mxPoint x="855" y="1645" as="targetPoint"/></mxGeometry></mxCell><mxCell id="1105" value="" style="endArrow=none;html=1;endFill=0;dashed=1;" parent="1" edge="1"><mxGeometry width="50" height="50" relative="1" as="geometry"><mxPoint x="830" y="1650.0000000000005" as="sourcePoint"/><mxPoint x="825" y="1645" as="targetPoint"/></mxGeometry></mxCell><mxCell id="1106" value="" style="endArrow=none;html=1;endFill=0;dashed=1;" parent="1" edge="1"><mxGeometry width="50" height="50" relative="1" as="geometry"><mxPoint x="850" y="1650.0000000000005" as="sourcePoint"/><mxPoint x="845" y="1645" as="targetPoint"/></mxGeometry></mxCell><mxCell id="1107" value="" style="endArrow=none;html=1;endFill=0;dashed=1;" parent="1" edge="1"><mxGeometry width="50" height="50" relative="1" as="geometry"><mxPoint x="830" y="1650.0000000000005" as="sourcePoint"/><mxPoint x="835" y="1645" as="targetPoint"/></mxGeometry></mxCell><mxCell id="1108" value="" style="endArrow=none;html=1;endFill=0;dashed=1;" parent="1" edge="1"><mxGeometry width="50" height="50" relative="1" as="geometry"><mxPoint x="810" y="1650" as="sourcePoint"/><mxPoint x="815" y="1645" as="targetPoint"/></mxGeometry></mxCell><mxCell id="1109" value="" style="endArrow=none;html=1;endFill=0;dashed=1;" parent="1" edge="1"><mxGeometry width="50" height="50" relative="1" as="geometry"><mxPoint x="810" y="1650" as="sourcePoint"/><mxPoint x="805" y="1645" as="targetPoint"/></mxGeometry></mxCell><mxCell id="1110" value="если высота одного из высот поддеревьев больше 0 а модуль их разности равен 2 тогда проверка на существование ссылки не требуется" style="text;html=1;strokeColor=none;fillColor=none;align=center;verticalAlign=middle;whiteSpace=wrap;rounded=0;" parent="1" vertex="1"><mxGeometry x="275" y="1200" width="295" height="50" as="geometry"/></mxCell><mxCell id="1111" value="" style="endArrow=classic;html=1;rounded=0;dashed=1;dashPattern=1 1;strokeColor=#000000;elbow=vertical;" parent="1" edge="1"><mxGeometry width="50" height="50" relative="1" as="geometry"><mxPoint x="560" y="1610" as="sourcePoint"/><mxPoint x="560" y="1630" as="targetPoint"/></mxGeometry></mxCell><mxCell id="1112" value="" style="endArrow=classic;html=1;rounded=0;dashed=1;dashPattern=1 1;strokeColor=#000000;elbow=vertical;" parent="1" edge="1"><mxGeometry width="50" height="50" relative="1" as="geometry"><mxPoint x="720" y="1610" as="sourcePoint"/><mxPoint x="720" y="1630" as="targetPoint"/></mxGeometry></mxCell><mxCell id="1113" value="" style="endArrow=classic;html=1;rounded=0;dashed=1;dashPattern=1 1;strokeColor=#000000;elbow=vertical;" parent="1" edge="1"><mxGeometry width="50" height="50" relative="1" as="geometry"><mxPoint x="880" y="1610" as="sourcePoint"/><mxPoint x="880" y="1630" as="targetPoint"/></mxGeometry></mxCell><mxCell id="1114" value="" style="endArrow=classic;html=1;rounded=0;dashed=1;dashPattern=1 1;strokeColor=#000000;elbow=vertical;" parent="1" edge="1"><mxGeometry width="50" height="50" relative="1" as="geometry"><mxPoint x="753.8" y="2150" as="sourcePoint"/><mxPoint x="753.8" y="2170" as="targetPoint"/></mxGeometry></mxCell><mxCell id="1115" value="" style="endArrow=classic;html=1;rounded=0;dashed=1;dashPattern=1 1;strokeColor=#000000;elbow=vertical;" parent="1" edge="1"><mxGeometry width="50" height="50" relative="1" as="geometry"><mxPoint x="899.8" y="2150" as="sourcePoint"/><mxPoint x="899.8" y="2170" as="targetPoint"/></mxGeometry></mxCell><mxCell id="1116" value="" style="endArrow=classic;html=1;rounded=0;dashed=1;dashPattern=1 1;strokeColor=#000000;elbow=vertical;" parent="1" edge="1"><mxGeometry width="50" height="50" relative="1" as="geometry"><mxPoint x="1034.6" y="2150" as="sourcePoint"/><mxPoint x="1034.6" y="2170" as="targetPoint"/></mxGeometry></mxCell><mxCell id="1117" value="" style="endArrow=classic;html=1;rounded=0;dashed=1;dashPattern=1 1;strokeColor=#000000;elbow=vertical;" parent="1" edge="1"><mxGeometry width="50" height="50" relative="1" as="geometry"><mxPoint x="1174.6" y="2150" as="sourcePoint"/><mxPoint x="1174.6" y="2170" as="targetPoint"/></mxGeometry></mxCell><mxCell id="1118" value="проверка не требуется" style="text;html=1;strokeColor=none;fillColor=none;align=center;verticalAlign=middle;whiteSpace=wrap;rounded=0;" parent="1" vertex="1"><mxGeometry x="860" y="1940" width="120" height="40" as="geometry"/></mxCell><mxCell id="1119" value="" style="endArrow=oval;html=1;endFill=1;dashed=1;" parent="1" edge="1"><mxGeometry width="50" height="50" relative="1" as="geometry"><mxPoint x="339.9999999999998" y="1660" as="sourcePoint"/><mxPoint x="329.9999999999998" y="1650" as="targetPoint"/></mxGeometry></mxCell><mxCell id="1120" value="" style="endArrow=oval;html=1;endFill=1;dashed=1;" parent="1" edge="1"><mxGeometry width="50" height="50" relative="1" as="geometry"><mxPoint x="360" y="1680" as="sourcePoint"/><mxPoint x="339.9999999999998" y="1660" as="targetPoint"/></mxGeometry></mxCell><mxCell id="1121" value="" style="endArrow=oval;html=1;endFill=1;" parent="1" edge="1"><mxGeometry width="50" height="50" relative="1" as="geometry"><mxPoint x="400" y="1720" as="sourcePoint"/><mxPoint x="360" y="1680" as="targetPoint"/></mxGeometry></mxCell><mxCell id="1122" value="" style="endArrow=oval;html=1;endFill=1;dashed=1;" parent="1" edge="1"><mxGeometry width="50" height="50" relative="1" as="geometry"><mxPoint x="360" y="1680" as="sourcePoint"/><mxPoint x="380" y="1660" as="targetPoint"/></mxGeometry></mxCell><mxCell id="1123" value="" style="endArrow=oval;html=1;endFill=1;dashed=1;" parent="1" edge="1"><mxGeometry width="50" height="50" relative="1" as="geometry"><mxPoint x="339.9999999999998" y="1660" as="sourcePoint"/><mxPoint x="350" y="1650" as="targetPoint"/></mxGeometry></mxCell><mxCell id="1124" value="" style="endArrow=oval;html=1;endFill=1;dashed=1;" parent="1" edge="1"><mxGeometry width="50" height="50" relative="1" as="geometry"><mxPoint x="380" y="1660" as="sourcePoint"/><mxPoint x="370" y="1650" as="targetPoint"/></mxGeometry></mxCell><mxCell id="1125" value="" style="endArrow=oval;html=1;endFill=1;dashed=1;" parent="1" edge="1"><mxGeometry width="50" height="50" relative="1" as="geometry"><mxPoint x="380" y="1660" as="sourcePoint"/><mxPoint x="390" y="1650" as="targetPoint"/></mxGeometry></mxCell><mxCell id="1126" value="" style="endArrow=oval;html=1;endFill=1;" parent="1" edge="1"><mxGeometry width="50" height="50" relative="1" as="geometry"><mxPoint x="440" y="1680" as="sourcePoint"/><mxPoint x="420" y="1660" as="targetPoint"/></mxGeometry></mxCell><mxCell id="1127" value="" style="endArrow=oval;html=1;endFill=1;" parent="1" edge="1"><mxGeometry width="50" height="50" relative="1" as="geometry"><mxPoint x="400" y="1720" as="sourcePoint"/><mxPoint x="440" y="1680" as="targetPoint"/></mxGeometry></mxCell><mxCell id="1128" value="" style="endArrow=oval;html=1;endFill=1;" parent="1" edge="1"><mxGeometry width="50" height="50" relative="1" as="geometry"><mxPoint x="319.9999999999998" y="1800" as="sourcePoint"/><mxPoint x="400" y="1720" as="targetPoint"/></mxGeometry></mxCell><mxCell id="1129" value="" style="ellipse;whiteSpace=wrap;html=1;fillColor=none;strokeColor=#4D9900;" parent="1" vertex="1"><mxGeometry x="430" y="1670" width="20" height="20" as="geometry"/></mxCell><mxCell id="1130" value="a" style="text;html=1;strokeColor=none;fillColor=none;align=center;verticalAlign=middle;whiteSpace=wrap;rounded=0;" parent="1" vertex="1"><mxGeometry x="409" y="1660" width="10" height="10" as="geometry"/></mxCell><mxCell id="1131" value="b" style="text;html=1;strokeColor=none;fillColor=none;align=center;verticalAlign=middle;whiteSpace=wrap;rounded=0;" parent="1" vertex="1"><mxGeometry x="435" y="1690" width="10" height="10" as="geometry"/></mxCell><mxCell id="1132" value="no - pivot" style="text;html=1;strokeColor=none;fillColor=none;align=center;verticalAlign=middle;whiteSpace=wrap;rounded=0;" parent="1" vertex="1"><mxGeometry x="385" y="1550" width="60" height="30" as="geometry"/></mxCell><mxCell id="1133" value="" style="endArrow=classic;html=1;rounded=0;dashed=1;dashPattern=1 1;strokeColor=#000000;elbow=vertical;" parent="1" edge="1"><mxGeometry width="50" height="50" relative="1" as="geometry"><mxPoint x="400" y="1610" as="sourcePoint"/><mxPoint x="400" y="1630" as="targetPoint"/></mxGeometry></mxCell><mxCell id="1134" value="1- pivot" style="text;html=1;strokeColor=none;fillColor=none;align=center;verticalAlign=middle;whiteSpace=wrap;rounded=0;" parent="1" vertex="1"><mxGeometry x="865" y="1555" width="60" height="30" as="geometry"/></mxCell><mxCell id="1135" value="" style="endArrow=oval;html=1;endFill=1;strokeColor=#000000;dashed=1;" parent="1" edge="1"><mxGeometry width="50" height="50" relative="1" as="geometry"><mxPoint x="1495" y="2010" as="sourcePoint"/><mxPoint x="1485" y="2000" as="targetPoint"/></mxGeometry></mxCell><mxCell id="1136" value="" style="endArrow=oval;html=1;endFill=1;strokeColor=#000000;dashed=1;" parent="1" edge="1"><mxGeometry width="50" height="50" relative="1" as="geometry"><mxPoint x="1515" y="2030" as="sourcePoint"/><mxPoint x="1495" y="2010" as="targetPoint"/></mxGeometry></mxCell><mxCell id="1137" value="" style="endArrow=oval;html=1;endFill=1;" parent="1" edge="1"><mxGeometry width="50" height="50" relative="1" as="geometry"><mxPoint x="1555" y="2070" as="sourcePoint"/><mxPoint x="1515" y="2030" as="targetPoint"/></mxGeometry></mxCell><mxCell id="1138" value="" style="endArrow=oval;html=1;endFill=1;strokeColor=#000000;dashed=1;" parent="1" edge="1"><mxGeometry width="50" height="50" relative="1" as="geometry"><mxPoint x="1515" y="2030" as="sourcePoint"/><mxPoint x="1535" y="2010" as="targetPoint"/></mxGeometry></mxCell><mxCell id="1139" value="" style="endArrow=oval;html=1;endFill=1;strokeColor=#000000;dashed=1;" parent="1" edge="1"><mxGeometry width="50" height="50" relative="1" as="geometry"><mxPoint x="1495" y="2010" as="sourcePoint"/><mxPoint x="1505" y="2000" as="targetPoint"/></mxGeometry></mxCell><mxCell id="1140" value="" style="endArrow=oval;html=1;endFill=1;strokeColor=#000000;dashed=1;" parent="1" edge="1"><mxGeometry width="50" height="50" relative="1" as="geometry"><mxPoint x="1535" y="2010" as="sourcePoint"/><mxPoint x="1525" y="2000" as="targetPoint"/></mxGeometry></mxCell><mxCell id="1141" value="" style="endArrow=oval;html=1;endFill=1;strokeColor=#000000;dashed=1;" parent="1" edge="1"><mxGeometry width="50" height="50" relative="1" as="geometry"><mxPoint x="1535" y="2010" as="sourcePoint"/><mxPoint x="1545" y="2000" as="targetPoint"/></mxGeometry></mxCell><mxCell id="1142" value="" style="endArrow=oval;html=1;endFill=1;strokeColor=#000000;" parent="1" edge="1"><mxGeometry width="50" height="50" relative="1" as="geometry"><mxPoint x="1595" y="2030" as="sourcePoint"/><mxPoint x="1615" y="2010" as="targetPoint"/></mxGeometry></mxCell><mxCell id="1143" value="" style="endArrow=oval;html=1;endFill=1;strokeColor=#990000;" parent="1" edge="1"><mxGeometry width="50" height="50" relative="1" as="geometry"><mxPoint x="1555" y="2070" as="sourcePoint"/><mxPoint x="1595" y="2030" as="targetPoint"/></mxGeometry></mxCell><mxCell id="1144" value="" style="endArrow=oval;html=1;endFill=1;" parent="1" edge="1"><mxGeometry width="50" height="50" relative="1" as="geometry"><mxPoint x="1475" y="2150" as="sourcePoint"/><mxPoint x="1555" y="2070" as="targetPoint"/></mxGeometry></mxCell><mxCell id="1145" value="" style="ellipse;whiteSpace=wrap;html=1;fillColor=none;strokeColor=#4D9900;" parent="1" vertex="1"><mxGeometry x="1585" y="2020" width="20" height="20" as="geometry"/></mxCell><mxCell id="1146" value="" style="endArrow=oval;html=1;endFill=1;strokeColor=#000000;" parent="1" edge="1"><mxGeometry width="50" height="50" relative="1" as="geometry"><mxPoint x="1595" y="2030" as="sourcePoint"/><mxPoint x="1575" y="2010" as="targetPoint"/></mxGeometry></mxCell><mxCell id="1174" value="" style="endArrow=oval;html=1;endFill=1;strokeColor=#000000;dashed=1;" parent="1" edge="1"><mxGeometry width="50" height="50" relative="1" as="geometry"><mxPoint x="1655" y="2010" as="sourcePoint"/><mxPoint x="1645" y="2000" as="targetPoint"/></mxGeometry></mxCell><mxCell id="1175" value="" style="endArrow=oval;html=1;endFill=1;strokeColor=#000000;dashed=1;" parent="1" edge="1"><mxGeometry width="50" height="50" relative="1" as="geometry"><mxPoint x="1675" y="2030" as="sourcePoint"/><mxPoint x="1655" y="2010" as="targetPoint"/></mxGeometry></mxCell><mxCell id="1176" value="" style="endArrow=oval;html=1;endFill=1;" parent="1" edge="1"><mxGeometry width="50" height="50" relative="1" as="geometry"><mxPoint x="1715" y="2070" as="sourcePoint"/><mxPoint x="1675" y="2030" as="targetPoint"/></mxGeometry></mxCell><mxCell id="1177" value="" style="endArrow=oval;html=1;endFill=1;strokeColor=#000000;dashed=1;" parent="1" edge="1"><mxGeometry width="50" height="50" relative="1" as="geometry"><mxPoint x="1675" y="2030" as="sourcePoint"/><mxPoint x="1695" y="2010" as="targetPoint"/></mxGeometry></mxCell><mxCell id="1178" value="" style="endArrow=oval;html=1;endFill=1;strokeColor=#000000;dashed=1;" parent="1" edge="1"><mxGeometry width="50" height="50" relative="1" as="geometry"><mxPoint x="1655" y="2010" as="sourcePoint"/><mxPoint x="1665" y="2000" as="targetPoint"/></mxGeometry></mxCell><mxCell id="1179" value="" style="endArrow=oval;html=1;endFill=1;strokeColor=#000000;dashed=1;" parent="1" edge="1"><mxGeometry width="50" height="50" relative="1" as="geometry"><mxPoint x="1695" y="2010" as="sourcePoint"/><mxPoint x="1685" y="2000" as="targetPoint"/></mxGeometry></mxCell><mxCell id="1180" value="" style="endArrow=oval;html=1;endFill=1;strokeColor=#000000;dashed=1;" parent="1" edge="1"><mxGeometry width="50" height="50" relative="1" as="geometry"><mxPoint x="1695" y="2010" as="sourcePoint"/><mxPoint x="1705" y="2000" as="targetPoint"/></mxGeometry></mxCell><mxCell id="1181" value="" style="endArrow=oval;html=1;endFill=1;strokeColor=#000000;" parent="1" edge="1"><mxGeometry width="50" height="50" relative="1" as="geometry"><mxPoint x="1755" y="2030" as="sourcePoint"/><mxPoint x="1775" y="2010" as="targetPoint"/></mxGeometry></mxCell><mxCell id="1182" value="" style="endArrow=oval;html=1;endFill=1;strokeColor=#990000;" parent="1" edge="1"><mxGeometry width="50" height="50" relative="1" as="geometry"><mxPoint x="1715" y="2070" as="sourcePoint"/><mxPoint x="1755" y="2030" as="targetPoint"/></mxGeometry></mxCell><mxCell id="1183" value="" style="endArrow=oval;html=1;endFill=1;" parent="1" edge="1"><mxGeometry width="50" height="50" relative="1" as="geometry"><mxPoint x="1635" y="2150" as="sourcePoint"/><mxPoint x="1715" y="2070" as="targetPoint"/></mxGeometry></mxCell><mxCell id="1184" value="" style="ellipse;whiteSpace=wrap;html=1;fillColor=none;strokeColor=#4D9900;" parent="1" vertex="1"><mxGeometry x="1745" y="2020" width="20" height="20" as="geometry"/></mxCell><mxCell id="1185" value="" style="endArrow=oval;html=1;endFill=1;strokeColor=#990000;" parent="1" edge="1"><mxGeometry width="50" height="50" relative="1" as="geometry"><mxPoint x="1755" y="2030" as="sourcePoint"/><mxPoint x="1735" y="2010" as="targetPoint"/></mxGeometry></mxCell><mxCell id="1186" value="" style="endArrow=oval;html=1;endFill=1;strokeColor=#000000;dashed=1;" parent="1" edge="1"><mxGeometry width="50" height="50" relative="1" as="geometry"><mxPoint x="1775" y="2010" as="sourcePoint"/><mxPoint x="1785" y="2000" as="targetPoint"/></mxGeometry></mxCell><mxCell id="1187" value="" style="endArrow=oval;html=1;endFill=1;strokeColor=#000000;dashed=1;" parent="1" edge="1"><mxGeometry width="50" height="50" relative="1" as="geometry"><mxPoint x="1775" y="2010" as="sourcePoint"/><mxPoint x="1765" y="2000" as="targetPoint"/></mxGeometry></mxCell><mxCell id="1188" value="" style="endArrow=oval;html=1;endFill=1;strokeColor=#000000;dashed=1;" parent="1" edge="1"><mxGeometry width="50" height="50" relative="1" as="geometry"><mxPoint x="1655" y="2170" as="sourcePoint"/><mxPoint x="1645" y="2160" as="targetPoint"/></mxGeometry></mxCell><mxCell id="1189" value="" style="endArrow=oval;html=1;endFill=1;strokeColor=#000000;dashed=1;" parent="1" edge="1"><mxGeometry width="50" height="50" relative="1" as="geometry"><mxPoint x="1675" y="2190" as="sourcePoint"/><mxPoint x="1655" y="2170" as="targetPoint"/></mxGeometry></mxCell><mxCell id="1190" value="" style="endArrow=oval;html=1;endFill=1;" parent="1" edge="1"><mxGeometry width="50" height="50" relative="1" as="geometry"><mxPoint x="1715" y="2230" as="sourcePoint"/><mxPoint x="1675" y="2190" as="targetPoint"/></mxGeometry></mxCell><mxCell id="1191" value="" style="endArrow=oval;html=1;endFill=1;strokeColor=#000000;dashed=1;" parent="1" edge="1"><mxGeometry width="50" height="50" relative="1" as="geometry"><mxPoint x="1675" y="2190" as="sourcePoint"/><mxPoint x="1695" y="2170" as="targetPoint"/></mxGeometry></mxCell><mxCell id="1192" value="" style="endArrow=oval;html=1;endFill=1;strokeColor=#000000;dashed=1;" parent="1" edge="1"><mxGeometry width="50" height="50" relative="1" as="geometry"><mxPoint x="1655" y="2170" as="sourcePoint"/><mxPoint x="1665" y="2160" as="targetPoint"/></mxGeometry></mxCell><mxCell id="1193" value="" style="endArrow=oval;html=1;endFill=1;strokeColor=#000000;dashed=1;" parent="1" edge="1"><mxGeometry width="50" height="50" relative="1" as="geometry"><mxPoint x="1695" y="2170" as="sourcePoint"/><mxPoint x="1685" y="2160" as="targetPoint"/></mxGeometry></mxCell><mxCell id="1194" value="" style="endArrow=oval;html=1;endFill=1;strokeColor=#000000;dashed=1;" parent="1" edge="1"><mxGeometry width="50" height="50" relative="1" as="geometry"><mxPoint x="1695" y="2170" as="sourcePoint"/><mxPoint x="1705" y="2160" as="targetPoint"/></mxGeometry></mxCell><mxCell id="1195" value="" style="endArrow=oval;html=1;endFill=1;strokeColor=#000000;" parent="1" edge="1"><mxGeometry width="50" height="50" relative="1" as="geometry"><mxPoint x="1755" y="2190" as="sourcePoint"/><mxPoint x="1775" y="2170" as="targetPoint"/></mxGeometry></mxCell><mxCell id="1196" value="" style="endArrow=oval;html=1;endFill=1;strokeColor=#990000;" parent="1" edge="1"><mxGeometry width="50" height="50" relative="1" as="geometry"><mxPoint x="1715" y="2230" as="sourcePoint"/><mxPoint x="1755" y="2190" as="targetPoint"/></mxGeometry></mxCell><mxCell id="1197" value="" style="endArrow=oval;html=1;endFill=1;" parent="1" edge="1"><mxGeometry width="50" height="50" relative="1" as="geometry"><mxPoint x="1635" y="2310" as="sourcePoint"/><mxPoint x="1715" y="2230" as="targetPoint"/></mxGeometry></mxCell><mxCell id="1198" value="" style="ellipse;whiteSpace=wrap;html=1;fillColor=none;strokeColor=#4D9900;" parent="1" vertex="1"><mxGeometry x="1745" y="2180" width="20" height="20" as="geometry"/></mxCell><mxCell id="1200" value="" style="endArrow=oval;html=1;endFill=1;strokeColor=#000000;dashed=1;" parent="1" edge="1"><mxGeometry width="50" height="50" relative="1" as="geometry"><mxPoint x="1775" y="2170" as="sourcePoint"/><mxPoint x="1785" y="2160" as="targetPoint"/></mxGeometry></mxCell><mxCell id="1201" value="" style="endArrow=oval;html=1;endFill=1;strokeColor=#000000;dashed=1;" parent="1" edge="1"><mxGeometry width="50" height="50" relative="1" as="geometry"><mxPoint x="1775" y="2170" as="sourcePoint"/><mxPoint x="1765" y="2160" as="targetPoint"/></mxGeometry></mxCell><mxCell id="1204" value="" style="endArrow=classic;html=1;rounded=0;dashed=1;dashPattern=1 1;strokeColor=#000000;elbow=vertical;" parent="1" edge="1"><mxGeometry width="50" height="50" relative="1" as="geometry"><mxPoint x="1620" y="2080" as="sourcePoint"/><mxPoint x="1640" y="2080" as="targetPoint"/></mxGeometry></mxCell><mxCell id="1205" value="" style="endArrow=classic;html=1;rounded=0;dashed=1;dashPattern=1 1;strokeColor=#000000;elbow=vertical;" parent="1" edge="1"><mxGeometry width="50" height="50" relative="1" as="geometry"><mxPoint x="1715" y="2150" as="sourcePoint"/><mxPoint x="1715" y="2170" as="targetPoint"/><Array as="points"/></mxGeometry></mxCell><mxCell id="1208" value="" style="shape=flexArrow;endArrow=classic;html=1;rounded=0;dashed=1;strokeColor=#990000;elbow=vertical;" parent="1" edge="1"><mxGeometry width="50" height="50" relative="1" as="geometry"><mxPoint x="1715" y="1965" as="sourcePoint"/><mxPoint x="240" y="1400" as="targetPoint"/><Array as="points"><mxPoint x="1715" y="1935"/><mxPoint x="1220" y="1935"/><mxPoint x="1220" y="1340"/><mxPoint x="240" y="1340"/></Array></mxGeometry></mxCell><mxCell id="1213" value="" style="endArrow=none;html=1;rounded=0;" parent="1" edge="1"><mxGeometry width="50" height="50" relative="1" as="geometry"><mxPoint x="2040" y="1880" as="sourcePoint"/><mxPoint x="2000" y="1800" as="targetPoint"/></mxGeometry></mxCell><mxCell id="1214" value="" style="endArrow=none;html=1;rounded=0;" parent="1" edge="1"><mxGeometry width="50" height="50" relative="1" as="geometry"><mxPoint x="2040" y="1880" as="sourcePoint"/><mxPoint x="2020" y="1800" as="targetPoint"/></mxGeometry></mxCell><mxCell id="1215" value="" style="endArrow=none;html=1;rounded=0;" parent="1" edge="1"><mxGeometry width="50" height="50" relative="1" as="geometry"><mxPoint x="2020" y="1800" as="sourcePoint"/><mxPoint x="2000" y="1800" as="targetPoint"/></mxGeometry></mxCell><mxCell id="1219" value="" style="endArrow=none;html=1;rounded=0;" parent="1" edge="1"><mxGeometry width="50" height="50" relative="1" as="geometry"><mxPoint x="2040" y="1880" as="sourcePoint"/><mxPoint x="2055" y="1820" as="targetPoint"/></mxGeometry></mxCell><mxCell id="1220" value="" style="endArrow=none;html=1;rounded=0;" parent="1" edge="1"><mxGeometry width="50" height="50" relative="1" as="geometry"><mxPoint x="2040" y="1880" as="sourcePoint"/><mxPoint x="2070" y="1820" as="targetPoint"/></mxGeometry></mxCell><mxCell id="1221" value="" style="endArrow=none;html=1;rounded=0;" parent="1" edge="1"><mxGeometry width="50" height="50" relative="1" as="geometry"><mxPoint x="2070" y="1820" as="sourcePoint"/><mxPoint x="2055" y="1820" as="targetPoint"/></mxGeometry></mxCell><mxCell id="1222" value="" style="endArrow=none;html=1;rounded=0;" parent="1" edge="1"><mxGeometry width="50" height="50" relative="1" as="geometry"><mxPoint x="2040" y="1880" as="sourcePoint"/><mxPoint x="2060" y="1900" as="targetPoint"/></mxGeometry></mxCell><mxCell id="1223" value="" style="endArrow=none;html=1;rounded=0;" parent="1" edge="1"><mxGeometry width="50" height="50" relative="1" as="geometry"><mxPoint x="2060" y="1900" as="sourcePoint"/><mxPoint x="2075" y="1840" as="targetPoint"/></mxGeometry></mxCell><mxCell id="1224" value="" style="endArrow=none;html=1;rounded=0;" parent="1" edge="1"><mxGeometry width="50" height="50" relative="1" as="geometry"><mxPoint x="2060" y="1900" as="sourcePoint"/><mxPoint x="2090" y="1840" as="targetPoint"/></mxGeometry></mxCell><mxCell id="1225" value="" style="endArrow=none;html=1;rounded=0;" parent="1" edge="1"><mxGeometry width="50" height="50" relative="1" as="geometry"><mxPoint x="2090" y="1840" as="sourcePoint"/><mxPoint x="2075" y="1840" as="targetPoint"/></mxGeometry></mxCell><mxCell id="1226" value="l" style="text;html=1;strokeColor=none;fillColor=none;align=center;verticalAlign=middle;whiteSpace=wrap;rounded=0;fontFamily=Courier New;" parent="1" vertex="1"><mxGeometry x="2025" y="1875" width="15" height="10" as="geometry"/></mxCell><mxCell id="1227" value="r" style="text;html=1;strokeColor=none;fillColor=none;align=center;verticalAlign=middle;whiteSpace=wrap;rounded=0;fontFamily=Courier New;" parent="1" vertex="1"><mxGeometry x="2055" y="1900" width="15" height="10" as="geometry"/></mxCell><mxCell id="1228" value="a" style="text;html=1;strokeColor=none;fillColor=none;align=center;verticalAlign=middle;whiteSpace=wrap;rounded=0;fontFamily=Courier New;" parent="1" vertex="1"><mxGeometry x="2005" y="1785" width="15" height="10" as="geometry"/></mxCell><mxCell id="1229" value="b" style="text;html=1;strokeColor=none;fillColor=none;align=center;verticalAlign=middle;whiteSpace=wrap;rounded=0;fontFamily=Courier New;" parent="1" vertex="1"><mxGeometry x="2060" y="1785" width="15" height="10" as="geometry"/></mxCell><mxCell id="1230" value="c" style="text;html=1;strokeColor=none;fillColor=none;align=center;verticalAlign=middle;whiteSpace=wrap;rounded=0;fontFamily=Courier New;" parent="1" vertex="1"><mxGeometry x="2075" y="1825" width="15" height="10" as="geometry"/></mxCell><mxCell id="1231" value="" style="endArrow=none;html=1;rounded=0;" parent="1" edge="1"><mxGeometry width="50" height="50" relative="1" as="geometry"><mxPoint x="2160" y="1900" as="sourcePoint"/><mxPoint x="2120" y="1820" as="targetPoint"/></mxGeometry></mxCell><mxCell id="1232" value="" style="endArrow=none;html=1;rounded=0;" parent="1" edge="1"><mxGeometry width="50" height="50" relative="1" as="geometry"><mxPoint x="2160" y="1900" as="sourcePoint"/><mxPoint x="2140" y="1820" as="targetPoint"/></mxGeometry></mxCell><mxCell id="1233" value="" style="endArrow=none;html=1;rounded=0;" parent="1" edge="1"><mxGeometry width="50" height="50" relative="1" as="geometry"><mxPoint x="2140" y="1820" as="sourcePoint"/><mxPoint x="2120" y="1820" as="targetPoint"/></mxGeometry></mxCell><mxCell id="1234" value="" style="endArrow=none;html=1;rounded=0;" parent="1" edge="1"><mxGeometry width="50" height="50" relative="1" as="geometry"><mxPoint x="2180" y="1880" as="sourcePoint"/><mxPoint x="2195" y="1820" as="targetPoint"/></mxGeometry></mxCell><mxCell id="1235" value="" style="endArrow=none;html=1;rounded=0;" parent="1" edge="1"><mxGeometry width="50" height="50" relative="1" as="geometry"><mxPoint x="2180" y="1880" as="sourcePoint"/><mxPoint x="2210" y="1820" as="targetPoint"/></mxGeometry></mxCell><mxCell id="1236" value="" style="endArrow=none;html=1;rounded=0;" parent="1" edge="1"><mxGeometry width="50" height="50" relative="1" as="geometry"><mxPoint x="2210" y="1820" as="sourcePoint"/><mxPoint x="2195" y="1820" as="targetPoint"/></mxGeometry></mxCell><mxCell id="1237" value="" style="endArrow=none;html=1;rounded=0;" parent="1" edge="1"><mxGeometry width="50" height="50" relative="1" as="geometry"><mxPoint x="2160" y="1900" as="sourcePoint"/><mxPoint x="2180" y="1880" as="targetPoint"/></mxGeometry></mxCell><mxCell id="1238" value="" style="endArrow=none;html=1;rounded=0;" parent="1" edge="1"><mxGeometry width="50" height="50" relative="1" as="geometry"><mxPoint x="2180" y="1880" as="sourcePoint"/><mxPoint x="2150" y="1820" as="targetPoint"/></mxGeometry></mxCell><mxCell id="1239" value="" style="endArrow=none;html=1;rounded=0;" parent="1" edge="1"><mxGeometry width="50" height="50" relative="1" as="geometry"><mxPoint x="2180" y="1880" as="sourcePoint"/><mxPoint x="2165" y="1820" as="targetPoint"/></mxGeometry></mxCell><mxCell id="1240" value="" style="endArrow=none;html=1;rounded=0;" parent="1" edge="1"><mxGeometry width="50" height="50" relative="1" as="geometry"><mxPoint x="2150" y="1820" as="sourcePoint"/><mxPoint x="2165" y="1820" as="targetPoint"/></mxGeometry></mxCell><mxCell id="1241" value="l" style="text;html=1;strokeColor=none;fillColor=none;align=center;verticalAlign=middle;whiteSpace=wrap;rounded=0;fontFamily=Courier New;" parent="1" vertex="1"><mxGeometry x="2150" y="1905" width="15" height="10" as="geometry"/></mxCell><mxCell id="1242" value="r" style="text;html=1;strokeColor=none;fillColor=none;align=center;verticalAlign=middle;whiteSpace=wrap;rounded=0;fontFamily=Courier New;" parent="1" vertex="1"><mxGeometry x="2175" y="1880" width="15" height="10" as="geometry"/></mxCell><mxCell id="1243" value="a" style="text;html=1;strokeColor=none;fillColor=none;align=center;verticalAlign=middle;whiteSpace=wrap;rounded=0;fontFamily=Courier New;" parent="1" vertex="1"><mxGeometry x="2125" y="1805" width="15" height="10" as="geometry"/></mxCell><mxCell id="1244" value="b" style="text;html=1;strokeColor=none;fillColor=none;align=center;verticalAlign=middle;whiteSpace=wrap;rounded=0;fontFamily=Courier New;" parent="1" vertex="1"><mxGeometry x="2145" y="1785" width="15" height="10" as="geometry"/></mxCell><mxCell id="1245" value="c" style="text;html=1;strokeColor=none;fillColor=none;align=center;verticalAlign=middle;whiteSpace=wrap;rounded=0;fontFamily=Courier New;" parent="1" vertex="1"><mxGeometry x="2195" y="1805" width="15" height="10" as="geometry"/></mxCell><mxCell id="1246" value="" style="endArrow=none;html=1;rounded=0;" parent="1" edge="1"><mxGeometry width="50" height="50" relative="1" as="geometry"><mxPoint x="2040" y="2060" as="sourcePoint"/><mxPoint x="2000" y="1980" as="targetPoint"/></mxGeometry></mxCell><mxCell id="1247" value="" style="endArrow=none;html=1;rounded=0;" parent="1" edge="1"><mxGeometry width="50" height="50" relative="1" as="geometry"><mxPoint x="2040" y="2060" as="sourcePoint"/><mxPoint x="2020" y="1980" as="targetPoint"/></mxGeometry></mxCell><mxCell id="1248" value="" style="endArrow=none;html=1;rounded=0;" parent="1" edge="1"><mxGeometry width="50" height="50" relative="1" as="geometry"><mxPoint x="2020" y="1980" as="sourcePoint"/><mxPoint x="2000" y="1980" as="targetPoint"/></mxGeometry></mxCell><mxCell id="1249" value="" style="endArrow=none;html=1;rounded=0;" parent="1" edge="1"><mxGeometry width="50" height="50" relative="1" as="geometry"><mxPoint x="2060" y="2040" as="sourcePoint"/><mxPoint x="2075" y="1980" as="targetPoint"/></mxGeometry></mxCell><mxCell id="1250" value="" style="endArrow=none;html=1;rounded=0;" parent="1" edge="1"><mxGeometry width="50" height="50" relative="1" as="geometry"><mxPoint x="2060" y="2040" as="sourcePoint"/><mxPoint x="2090" y="1980" as="targetPoint"/></mxGeometry></mxCell><mxCell id="1251" value="" style="endArrow=none;html=1;rounded=0;" parent="1" edge="1"><mxGeometry width="50" height="50" relative="1" as="geometry"><mxPoint x="2090" y="1980" as="sourcePoint"/><mxPoint x="2075" y="1980" as="targetPoint"/></mxGeometry></mxCell><mxCell id="1252" value="" style="endArrow=none;html=1;rounded=0;" parent="1" edge="1"><mxGeometry width="50" height="50" relative="1" as="geometry"><mxPoint x="2040" y="2060" as="sourcePoint"/><mxPoint x="2060" y="2040" as="targetPoint"/></mxGeometry></mxCell><mxCell id="1253" value="" style="endArrow=none;html=1;rounded=0;" parent="1" edge="1"><mxGeometry width="50" height="50" relative="1" as="geometry"><mxPoint x="2060" y="2040" as="sourcePoint"/><mxPoint x="2030" y="1980" as="targetPoint"/></mxGeometry></mxCell><mxCell id="1254" value="" style="endArrow=none;html=1;rounded=0;" parent="1" edge="1"><mxGeometry width="50" height="50" relative="1" as="geometry"><mxPoint x="2060" y="2040" as="sourcePoint"/><mxPoint x="2045" y="1980" as="targetPoint"/></mxGeometry></mxCell><mxCell id="1255" value="" style="endArrow=none;html=1;rounded=0;" parent="1" edge="1"><mxGeometry width="50" height="50" relative="1" as="geometry"><mxPoint x="2030" y="1980" as="sourcePoint"/><mxPoint x="2045" y="1980" as="targetPoint"/></mxGeometry></mxCell><mxCell id="1256" value="l" style="text;html=1;strokeColor=none;fillColor=none;align=center;verticalAlign=middle;whiteSpace=wrap;rounded=0;fontFamily=Courier New;" parent="1" vertex="1"><mxGeometry x="2055" y="2045" width="15" height="10" as="geometry"/></mxCell><mxCell id="1257" value="r" style="text;html=1;strokeColor=none;fillColor=none;align=center;verticalAlign=middle;whiteSpace=wrap;rounded=0;fontFamily=Courier New;" parent="1" vertex="1"><mxGeometry x="2075" y="2085" width="15" height="10" as="geometry"/></mxCell><mxCell id="1258" value="a" style="text;html=1;strokeColor=none;fillColor=none;align=center;verticalAlign=middle;whiteSpace=wrap;rounded=0;fontFamily=Courier New;" parent="1" vertex="1"><mxGeometry x="2000" y="1965" width="15" height="10" as="geometry"/></mxCell><mxCell id="1259" value="b" style="text;html=1;strokeColor=none;fillColor=none;align=center;verticalAlign=middle;whiteSpace=wrap;rounded=0;fontFamily=Courier New;" parent="1" vertex="1"><mxGeometry x="2080" y="1945" width="15" height="10" as="geometry"/></mxCell><mxCell id="1260" value="c" style="text;html=1;strokeColor=none;fillColor=none;align=center;verticalAlign=middle;whiteSpace=wrap;rounded=0;fontFamily=Courier New;" parent="1" vertex="1"><mxGeometry x="2020" y="1945" width="15" height="10" as="geometry"/></mxCell><mxCell id="1262" value="" style="endArrow=none;html=1;rounded=0;dashed=1;" parent="1" edge="1"><mxGeometry width="50" height="50" relative="1" as="geometry"><mxPoint x="2090" y="1980" as="sourcePoint"/><mxPoint x="2100" y="1960" as="targetPoint"/></mxGeometry></mxCell><mxCell id="1263" value="" style="endArrow=none;html=1;rounded=0;dashed=1;" parent="1" edge="1"><mxGeometry width="50" height="50" relative="1" as="geometry"><mxPoint x="2075" y="1980" as="sourcePoint"/><mxPoint x="2080" y="1960" as="targetPoint"/></mxGeometry></mxCell><mxCell id="1264" value="" style="endArrow=none;html=1;rounded=0;dashed=1;" parent="1" edge="1"><mxGeometry width="50" height="50" relative="1" as="geometry"><mxPoint x="2080" y="1960" as="sourcePoint"/><mxPoint x="2100" y="1960" as="targetPoint"/></mxGeometry></mxCell><mxCell id="1265" value="" style="endArrow=none;html=1;rounded=0;dashed=1;" parent="1" edge="1"><mxGeometry width="50" height="50" relative="1" as="geometry"><mxPoint x="2045" y="1980" as="sourcePoint"/><mxPoint x="2040" y="1960" as="targetPoint"/></mxGeometry></mxCell><mxCell id="1266" value="" style="endArrow=none;html=1;rounded=0;dashed=1;" parent="1" edge="1"><mxGeometry width="50" height="50" relative="1" as="geometry"><mxPoint x="2030" y="1980" as="sourcePoint"/><mxPoint x="2020" y="1960" as="targetPoint"/></mxGeometry></mxCell><mxCell id="1267" value="" style="endArrow=none;html=1;rounded=0;dashed=1;" parent="1" edge="1"><mxGeometry width="50" height="50" relative="1" as="geometry"><mxPoint x="2020" y="1960" as="sourcePoint"/><mxPoint x="2040" y="1960" as="targetPoint"/></mxGeometry></mxCell><mxCell id="1268" value="" style="endArrow=none;html=1;rounded=0;fontFamily=Courier New;" parent="1" edge="1"><mxGeometry width="50" height="50" relative="1" as="geometry"><mxPoint x="2040" y="2060" as="sourcePoint"/><mxPoint x="2080" y="2080" as="targetPoint"/></mxGeometry></mxCell><mxCell id="1269" value="" style="endArrow=none;html=1;rounded=0;" parent="1" edge="1"><mxGeometry width="50" height="50" relative="1" as="geometry"><mxPoint x="2080" y="2080" as="sourcePoint"/><mxPoint x="2100" y="2000" as="targetPoint"/></mxGeometry></mxCell><mxCell id="1270" value="" style="endArrow=none;html=1;rounded=0;" parent="1" edge="1"><mxGeometry width="50" height="50" relative="1" as="geometry"><mxPoint x="2080" y="2080" as="sourcePoint"/><mxPoint x="2120" y="2000" as="targetPoint"/></mxGeometry></mxCell><mxCell id="1271" value="" style="endArrow=none;html=1;rounded=0;" parent="1" edge="1"><mxGeometry width="50" height="50" relative="1" as="geometry"><mxPoint x="2120" y="2000" as="sourcePoint"/><mxPoint x="2100" y="2000" as="targetPoint"/></mxGeometry></mxCell><mxCell id="1272" value="" style="endArrow=none;html=1;rounded=0;" parent="1" edge="1"><mxGeometry width="50" height="50" relative="1" as="geometry"><mxPoint x="2180" y="2040" as="sourcePoint"/><mxPoint x="2140" y="1960" as="targetPoint"/></mxGeometry></mxCell><mxCell id="1273" value="" style="endArrow=none;html=1;rounded=0;" parent="1" edge="1"><mxGeometry width="50" height="50" relative="1" as="geometry"><mxPoint x="2180" y="2040" as="sourcePoint"/><mxPoint x="2160" y="1960" as="targetPoint"/></mxGeometry></mxCell><mxCell id="1274" value="" style="endArrow=none;html=1;rounded=0;" parent="1" edge="1"><mxGeometry width="50" height="50" relative="1" as="geometry"><mxPoint x="2160" y="1960" as="sourcePoint"/><mxPoint x="2140" y="1960" as="targetPoint"/></mxGeometry></mxCell><mxCell id="1275" value="l" style="text;html=1;strokeColor=none;fillColor=none;align=center;verticalAlign=middle;whiteSpace=wrap;rounded=0;fontFamily=Courier New;" parent="1" vertex="1"><mxGeometry x="2190" y="2065" width="15" height="10" as="geometry"/></mxCell><mxCell id="1276" value="a" style="text;html=1;strokeColor=none;fillColor=none;align=center;verticalAlign=middle;whiteSpace=wrap;rounded=0;fontFamily=Courier New;" parent="1" vertex="1"><mxGeometry x="2140" y="1945" width="15" height="10" as="geometry"/></mxCell><mxCell id="1278" value="" style="endArrow=none;html=1;rounded=0;" parent="1" edge="1"><mxGeometry width="50" height="50" relative="1" as="geometry"><mxPoint x="2200" y="2060" as="sourcePoint"/><mxPoint x="2180" y="2040" as="targetPoint"/></mxGeometry></mxCell><mxCell id="1286" value="" style="endArrow=none;html=1;rounded=0;" parent="1" edge="1"><mxGeometry width="50" height="50" relative="1" as="geometry"><mxPoint x="2180" y="2040" as="sourcePoint"/><mxPoint x="2195" y="1980" as="targetPoint"/></mxGeometry></mxCell><mxCell id="1287" value="" style="endArrow=none;html=1;rounded=0;" parent="1" edge="1"><mxGeometry width="50" height="50" relative="1" as="geometry"><mxPoint x="2180" y="2040" as="sourcePoint"/><mxPoint x="2210" y="1980" as="targetPoint"/></mxGeometry></mxCell><mxCell id="1288" value="" style="endArrow=none;html=1;rounded=0;" parent="1" edge="1"><mxGeometry width="50" height="50" relative="1" as="geometry"><mxPoint x="2210" y="1980" as="sourcePoint"/><mxPoint x="2195" y="1980" as="targetPoint"/></mxGeometry></mxCell><mxCell id="1289" value="c" style="text;html=1;strokeColor=none;fillColor=none;align=center;verticalAlign=middle;whiteSpace=wrap;rounded=0;fontFamily=Courier New;" parent="1" vertex="1"><mxGeometry x="2200" y="1945" width="15" height="10" as="geometry"/></mxCell><mxCell id="1290" value="" style="endArrow=none;html=1;rounded=0;dashed=1;" parent="1" edge="1"><mxGeometry width="50" height="50" relative="1" as="geometry"><mxPoint x="2210" y="1980" as="sourcePoint"/><mxPoint x="2220" y="1960" as="targetPoint"/></mxGeometry></mxCell><mxCell id="1291" value="" style="endArrow=none;html=1;rounded=0;dashed=1;" parent="1" edge="1"><mxGeometry width="50" height="50" relative="1" as="geometry"><mxPoint x="2195" y="1980" as="sourcePoint"/><mxPoint x="2200" y="1960" as="targetPoint"/></mxGeometry></mxCell><mxCell id="1292" value="" style="endArrow=none;html=1;rounded=0;dashed=1;" parent="1" edge="1"><mxGeometry width="50" height="50" relative="1" as="geometry"><mxPoint x="2200" y="1960" as="sourcePoint"/><mxPoint x="2220" y="1960" as="targetPoint"/></mxGeometry></mxCell><mxCell id="1293" value="" style="endArrow=none;html=1;rounded=0;" parent="1" edge="1"><mxGeometry width="50" height="50" relative="1" as="geometry"><mxPoint x="2200" y="2060" as="sourcePoint"/><mxPoint x="2215" y="2000" as="targetPoint"/></mxGeometry></mxCell><mxCell id="1294" value="" style="endArrow=none;html=1;rounded=0;" parent="1" edge="1"><mxGeometry width="50" height="50" relative="1" as="geometry"><mxPoint x="2200" y="2060" as="sourcePoint"/><mxPoint x="2230" y="2000" as="targetPoint"/></mxGeometry></mxCell><mxCell id="1295" value="" style="endArrow=none;html=1;rounded=0;" parent="1" edge="1"><mxGeometry width="50" height="50" relative="1" as="geometry"><mxPoint x="2230" y="2000" as="sourcePoint"/><mxPoint x="2215" y="2000" as="targetPoint"/></mxGeometry></mxCell><mxCell id="1296" value="b" style="text;html=1;strokeColor=none;fillColor=none;align=center;verticalAlign=middle;whiteSpace=wrap;rounded=0;fontFamily=Courier New;" parent="1" vertex="1"><mxGeometry x="2220" y="1965" width="15" height="10" as="geometry"/></mxCell><mxCell id="1297" value="" style="endArrow=none;html=1;rounded=0;dashed=1;" parent="1" edge="1"><mxGeometry width="50" height="50" relative="1" as="geometry"><mxPoint x="2230" y="2000" as="sourcePoint"/><mxPoint x="2240" y="1980" as="targetPoint"/></mxGeometry></mxCell><mxCell id="1298" value="" style="endArrow=none;html=1;rounded=0;dashed=1;" parent="1" edge="1"><mxGeometry width="50" height="50" relative="1" as="geometry"><mxPoint x="2215" y="2000" as="sourcePoint"/><mxPoint x="2220" y="1980" as="targetPoint"/></mxGeometry></mxCell><mxCell id="1299" value="" style="endArrow=none;html=1;rounded=0;dashed=1;" parent="1" edge="1"><mxGeometry width="50" height="50" relative="1" as="geometry"><mxPoint x="2220" y="1980" as="sourcePoint"/><mxPoint x="2240" y="1980" as="targetPoint"/></mxGeometry></mxCell><mxCell id="1300" value="" style="endArrow=none;html=1;rounded=0;fontFamily=Courier New;" parent="1" edge="1"><mxGeometry width="50" height="50" relative="1" as="geometry"><mxPoint x="2200" y="2060" as="sourcePoint"/><mxPoint x="2220" y="2080" as="targetPoint"/></mxGeometry></mxCell><mxCell id="1301" value="" style="endArrow=none;html=1;rounded=0;" parent="1" edge="1"><mxGeometry width="50" height="50" relative="1" as="geometry"><mxPoint x="2220" y="2080" as="sourcePoint"/><mxPoint x="2240" y="2000" as="targetPoint"/></mxGeometry></mxCell><mxCell id="1302" value="" style="endArrow=none;html=1;rounded=0;" parent="1" edge="1"><mxGeometry width="50" height="50" relative="1" as="geometry"><mxPoint x="2220" y="2080" as="sourcePoint"/><mxPoint x="2260" y="2000" as="targetPoint"/></mxGeometry></mxCell><mxCell id="1303" value="" style="endArrow=none;html=1;rounded=0;" parent="1" edge="1"><mxGeometry width="50" height="50" relative="1" as="geometry"><mxPoint x="2260" y="2000" as="sourcePoint"/><mxPoint x="2240" y="2000" as="targetPoint"/></mxGeometry></mxCell><mxCell id="1304" value="r" style="text;html=1;strokeColor=none;fillColor=none;align=center;verticalAlign=middle;whiteSpace=wrap;rounded=0;fontFamily=Courier New;" parent="1" vertex="1"><mxGeometry x="2215" y="2085" width="15" height="10" as="geometry"/></mxCell><mxCell id="1305" value="" style="endArrow=none;html=1;rounded=0;" parent="1" edge="1"><mxGeometry width="50" height="50" relative="1" as="geometry"><mxPoint x="2320" y="2060" as="sourcePoint"/><mxPoint x="2280" y="1980" as="targetPoint"/></mxGeometry></mxCell><mxCell id="1306" value="" style="endArrow=none;html=1;rounded=0;" parent="1" edge="1"><mxGeometry width="50" height="50" relative="1" as="geometry"><mxPoint x="2320" y="2060" as="sourcePoint"/><mxPoint x="2300" y="1980" as="targetPoint"/></mxGeometry></mxCell><mxCell id="1307" value="" style="endArrow=none;html=1;rounded=0;" parent="1" edge="1"><mxGeometry width="50" height="50" relative="1" as="geometry"><mxPoint x="2300" y="1980" as="sourcePoint"/><mxPoint x="2280" y="1980" as="targetPoint"/></mxGeometry></mxCell><mxCell id="1308" value="" style="endArrow=none;html=1;rounded=0;" parent="1" edge="1"><mxGeometry width="50" height="50" relative="1" as="geometry"><mxPoint x="2320" y="2060" as="sourcePoint"/><mxPoint x="2335" y="2000" as="targetPoint"/></mxGeometry></mxCell><mxCell id="1309" value="" style="endArrow=none;html=1;rounded=0;" parent="1" edge="1"><mxGeometry width="50" height="50" relative="1" as="geometry"><mxPoint x="2320" y="2060" as="sourcePoint"/><mxPoint x="2350" y="2000" as="targetPoint"/></mxGeometry></mxCell><mxCell id="1310" value="" style="endArrow=none;html=1;rounded=0;" parent="1" edge="1"><mxGeometry width="50" height="50" relative="1" as="geometry"><mxPoint x="2350" y="2000" as="sourcePoint"/><mxPoint x="2335" y="2000" as="targetPoint"/></mxGeometry></mxCell><mxCell id="1311" value="" style="endArrow=none;html=1;rounded=0;" parent="1" edge="1"><mxGeometry width="50" height="50" relative="1" as="geometry"><mxPoint x="2320" y="2060" as="sourcePoint"/><mxPoint x="2360" y="2080" as="targetPoint"/></mxGeometry></mxCell><mxCell id="1312" value="" style="endArrow=none;html=1;rounded=0;" parent="1" edge="1"><mxGeometry width="50" height="50" relative="1" as="geometry"><mxPoint x="2400" y="2060" as="sourcePoint"/><mxPoint x="2370" y="2000" as="targetPoint"/></mxGeometry></mxCell><mxCell id="1313" value="" style="endArrow=none;html=1;rounded=0;" parent="1" edge="1"><mxGeometry width="50" height="50" relative="1" as="geometry"><mxPoint x="2400" y="2060" as="sourcePoint"/><mxPoint x="2385" y="2000" as="targetPoint"/></mxGeometry></mxCell><mxCell id="1314" value="" style="endArrow=none;html=1;rounded=0;" parent="1" edge="1"><mxGeometry width="50" height="50" relative="1" as="geometry"><mxPoint x="2370" y="2000" as="sourcePoint"/><mxPoint x="2385" y="2000" as="targetPoint"/></mxGeometry></mxCell><mxCell id="1315" value="l" style="text;html=1;strokeColor=none;fillColor=none;align=center;verticalAlign=middle;whiteSpace=wrap;rounded=0;fontFamily=Courier New;" parent="1" vertex="1"><mxGeometry x="2355" y="2085" width="15" height="10" as="geometry"/></mxCell><mxCell id="1316" value="r" style="text;html=1;strokeColor=none;fillColor=none;align=center;verticalAlign=middle;whiteSpace=wrap;rounded=0;fontFamily=Courier New;" parent="1" vertex="1"><mxGeometry x="2395" y="2065" width="15" height="10" as="geometry"/></mxCell><mxCell id="1317" value="a" style="text;html=1;strokeColor=none;fillColor=none;align=center;verticalAlign=middle;whiteSpace=wrap;rounded=0;fontFamily=Courier New;" parent="1" vertex="1"><mxGeometry x="2280" y="1965" width="15" height="10" as="geometry"/></mxCell><mxCell id="1318" value="b" style="text;html=1;strokeColor=none;fillColor=none;align=center;verticalAlign=middle;whiteSpace=wrap;rounded=0;fontFamily=Courier New;" parent="1" vertex="1"><mxGeometry x="2365" y="1965" width="15" height="10" as="geometry"/></mxCell><mxCell id="1319" value="c" style="text;html=1;strokeColor=none;fillColor=none;align=center;verticalAlign=middle;whiteSpace=wrap;rounded=0;fontFamily=Courier New;" parent="1" vertex="1"><mxGeometry x="2340" y="1965" width="15" height="10" as="geometry"/></mxCell><mxCell id="1320" value="" style="endArrow=none;html=1;rounded=0;dashed=1;" parent="1" edge="1"><mxGeometry width="50" height="50" relative="1" as="geometry"><mxPoint x="2350" y="2000" as="sourcePoint"/><mxPoint x="2360" y="1980" as="targetPoint"/></mxGeometry></mxCell><mxCell id="1321" value="" style="endArrow=none;html=1;rounded=0;dashed=1;" parent="1" edge="1"><mxGeometry width="50" height="50" relative="1" as="geometry"><mxPoint x="2335" y="2000" as="sourcePoint"/><mxPoint x="2340" y="1980" as="targetPoint"/></mxGeometry></mxCell><mxCell id="1322" value="" style="endArrow=none;html=1;rounded=0;dashed=1;" parent="1" edge="1"><mxGeometry width="50" height="50" relative="1" as="geometry"><mxPoint x="2340" y="1980" as="sourcePoint"/><mxPoint x="2360" y="1980" as="targetPoint"/></mxGeometry></mxCell><mxCell id="1323" value="" style="endArrow=none;html=1;rounded=0;dashed=1;" parent="1" edge="1"><mxGeometry width="50" height="50" relative="1" as="geometry"><mxPoint x="2385" y="2000" as="sourcePoint"/><mxPoint x="2380" y="1980" as="targetPoint"/></mxGeometry></mxCell><mxCell id="1324" value="" style="endArrow=none;html=1;rounded=0;dashed=1;" parent="1" edge="1"><mxGeometry width="50" height="50" relative="1" as="geometry"><mxPoint x="2370" y="2000" as="sourcePoint"/><mxPoint x="2360" y="1980" as="targetPoint"/></mxGeometry></mxCell><mxCell id="1325" value="" style="endArrow=none;html=1;rounded=0;dashed=1;" parent="1" edge="1"><mxGeometry width="50" height="50" relative="1" as="geometry"><mxPoint x="2360" y="1980" as="sourcePoint"/><mxPoint x="2380" y="1980" as="targetPoint"/></mxGeometry></mxCell><mxCell id="1326" value="" style="endArrow=none;html=1;rounded=0;fontFamily=Courier New;" parent="1" edge="1"><mxGeometry width="50" height="50" relative="1" as="geometry"><mxPoint x="2360" y="2080" as="sourcePoint"/><mxPoint x="2400" y="2060" as="targetPoint"/></mxGeometry></mxCell><mxCell id="1327" value="" style="endArrow=none;html=1;rounded=0;" parent="1" edge="1"><mxGeometry width="50" height="50" relative="1" as="geometry"><mxPoint x="2400" y="2060" as="sourcePoint"/><mxPoint x="2420" y="1980" as="targetPoint"/></mxGeometry></mxCell><mxCell id="1328" value="" style="endArrow=none;html=1;rounded=0;" parent="1" edge="1"><mxGeometry width="50" height="50" relative="1" as="geometry"><mxPoint x="2400" y="2060" as="sourcePoint"/><mxPoint x="2440" y="1980" as="targetPoint"/></mxGeometry></mxCell><mxCell id="1329" value="" style="endArrow=none;html=1;rounded=0;" parent="1" edge="1"><mxGeometry width="50" height="50" relative="1" as="geometry"><mxPoint x="2440" y="1980" as="sourcePoint"/><mxPoint x="2420" y="1980" as="targetPoint"/></mxGeometry></mxCell><mxCell id="1333" value="g" style="text;html=1;strokeColor=none;fillColor=none;align=center;verticalAlign=middle;whiteSpace=wrap;rounded=0;fontFamily=Courier New;" parent="1" vertex="1"><mxGeometry x="2030" y="2065" width="15" height="10" as="geometry"/></mxCell><mxCell id="1334" value="g" style="text;html=1;strokeColor=none;fillColor=none;align=center;verticalAlign=middle;whiteSpace=wrap;rounded=0;fontFamily=Courier New;" parent="1" vertex="1"><mxGeometry x="2170" y="2045" width="15" height="10" as="geometry"/></mxCell><mxCell id="1336" value="`g_h^' = l_h ` (both)&lt;br&gt;`l_h^' = node_h ` (insertion)&lt;br&gt;`l_h^' = l_h + 1 ` (deletion)&lt;br&gt;`r_h^'=r_h-1 `&amp;nbsp;(insertion)&lt;br&gt;`r_h^'=temp_h+1` (deletion)&amp;nbsp;" style="text;html=1;strokeColor=default;fillColor=none;align=center;verticalAlign=middle;whiteSpace=wrap;rounded=0;fontFamily=Courier New;" parent="1" vertex="1"><mxGeometry x="2135" y="2185" width="180" height="87.5" as="geometry"/></mxCell><mxCell id="1337" value="" style="ellipse;whiteSpace=wrap;html=1;fontFamily=Courier New;fillColor=none;strokeColor=#99004D;" parent="1" vertex="1"><mxGeometry x="2055" y="1897.5" width="15" height="15" as="geometry"/></mxCell><mxCell id="1339" value="" style="ellipse;whiteSpace=wrap;html=1;fontFamily=Courier New;fillColor=none;strokeColor=#99004D;" parent="1" vertex="1"><mxGeometry x="2075" y="2082.5" width="15" height="15" as="geometry"/></mxCell><mxCell id="1342" value="`r_h^'=r_h-1&amp;nbsp; &amp;nbsp;`(insertion)&lt;br&gt;&amp;nbsp;`r_h^' = b_h+1` (deletion)" style="text;html=1;strokeColor=default;fillColor=none;align=center;verticalAlign=middle;whiteSpace=wrap;rounded=0;fontFamily=Courier New;" parent="1" vertex="1"><mxGeometry x="2245" y="1840" width="160" height="35" as="geometry"/></mxCell><mxCell id="1343" value="при удалении, можно перед поворотом&amp;nbsp;сохранить значение `b_h` в переменную `temp_h` и после всех (1 или 2х) поворотов присвоить `r_h^'=temp_h+1`" style="text;html=1;strokeColor=default;fillColor=none;align=left;verticalAlign=middle;whiteSpace=wrap;rounded=0;fontFamily=Courier New;" parent="1" vertex="1"><mxGeometry x="2200" y="1885" width="265" height="57.5" as="geometry"/></mxCell><mxCell id="1344" value="&lt;div style=&quot;text-align: center&quot;&gt;&lt;span&gt;&lt;font face=&quot;courier new&quot;&gt;если это двойной поворот, то изменить значение переменной `temp_h = d_h`&lt;/font&gt;&lt;/span&gt;&lt;/div&gt;" style="text;whiteSpace=wrap;html=1;fontFamily=Courier New;strokeColor=default;" parent="1" vertex="1"><mxGeometry x="2025" y="2135" width="285" height="35" as="geometry"/></mxCell><mxCell id="1345" value="d" style="text;html=1;strokeColor=none;fillColor=none;align=center;verticalAlign=middle;whiteSpace=wrap;rounded=0;fontFamily=Courier New;" parent="1" vertex="1"><mxGeometry x="2105" y="1985" width="15" height="10" as="geometry"/></mxCell><mxCell id="1346" value="d" style="text;html=1;strokeColor=none;fillColor=none;align=center;verticalAlign=middle;whiteSpace=wrap;rounded=0;fontFamily=Courier New;" parent="1" vertex="1"><mxGeometry x="2245" y="1985" width="15" height="10" as="geometry"/></mxCell><mxCell id="1347" value="d" style="text;html=1;strokeColor=none;fillColor=none;align=center;verticalAlign=middle;whiteSpace=wrap;rounded=0;fontFamily=Courier New;" parent="1" vertex="1"><mxGeometry x="2420" y="1965" width="15" height="10" as="geometry"/></mxCell><mxCell id="1348" value="g" style="text;html=1;strokeColor=none;fillColor=none;align=center;verticalAlign=middle;whiteSpace=wrap;rounded=0;fontFamily=Courier New;" parent="1" vertex="1"><mxGeometry x="2310" y="2065" width="15" height="10" as="geometry"/></mxCell><mxCell id="1349" value="(после вставки) если прежняя высота узла вставки &amp;gt; 1 то выходим из цикла, иначе делается шаг назад по дереву, высота &amp;gt;2 выходим. если&amp;nbsp;" style="text;html=1;strokeColor=none;fillColor=none;align=center;verticalAlign=middle;whiteSpace=wrap;rounded=0;" parent="1" vertex="1"><mxGeometry x="1465" y="1700" width="240" height="55" as="geometry"/></mxCell><mxCell id="1350" value="" style="endArrow=oval;html=1;endFill=1;dashed=1;" parent="1" edge="1"><mxGeometry width="50" height="50" relative="1" as="geometry"><mxPoint x="1000" y="1660" as="sourcePoint"/><mxPoint x="990" y="1650" as="targetPoint"/></mxGeometry></mxCell><mxCell id="1351" value="" style="endArrow=oval;html=1;endFill=1;dashed=1;dashPattern=1 1;" parent="1" edge="1"><mxGeometry width="50" height="50" relative="1" as="geometry"><mxPoint x="1020" y="1680" as="sourcePoint"/><mxPoint x="1000" y="1660" as="targetPoint"/></mxGeometry></mxCell><mxCell id="1352" value="" style="endArrow=oval;html=1;endFill=1;" parent="1" edge="1"><mxGeometry width="50" height="50" relative="1" as="geometry"><mxPoint x="1060" y="1720" as="sourcePoint"/><mxPoint x="1020" y="1680" as="targetPoint"/></mxGeometry></mxCell><mxCell id="1353" value="" style="endArrow=oval;html=1;endFill=1;dashed=1;dashPattern=1 1;" parent="1" edge="1"><mxGeometry width="50" height="50" relative="1" as="geometry"><mxPoint x="1020" y="1680" as="sourcePoint"/><mxPoint x="1040" y="1660" as="targetPoint"/></mxGeometry></mxCell><mxCell id="1354" value="" style="endArrow=oval;html=1;endFill=1;dashed=1;" parent="1" edge="1"><mxGeometry width="50" height="50" relative="1" as="geometry"><mxPoint x="1000" y="1660" as="sourcePoint"/><mxPoint x="1010" y="1650" as="targetPoint"/></mxGeometry></mxCell><mxCell id="1355" value="" style="endArrow=oval;html=1;endFill=1;dashed=1;" parent="1" edge="1"><mxGeometry width="50" height="50" relative="1" as="geometry"><mxPoint x="1040" y="1660" as="sourcePoint"/><mxPoint x="1030" y="1650" as="targetPoint"/></mxGeometry></mxCell><mxCell id="1356" value="" style="endArrow=oval;html=1;endFill=1;dashed=1;" parent="1" edge="1"><mxGeometry width="50" height="50" relative="1" as="geometry"><mxPoint x="1040" y="1660" as="sourcePoint"/><mxPoint x="1050" y="1650" as="targetPoint"/></mxGeometry></mxCell><mxCell id="1357" value="" style="endArrow=oval;html=1;endFill=1;" parent="1" edge="1"><mxGeometry width="50" height="50" relative="1" as="geometry"><mxPoint x="1080" y="1660" as="sourcePoint"/><mxPoint x="1070" y="1650" as="targetPoint"/></mxGeometry></mxCell><mxCell id="1358" value="" style="endArrow=oval;html=1;endFill=1;" parent="1" source="1361" edge="1"><mxGeometry width="50" height="50" relative="1" as="geometry"><mxPoint x="1080" y="1660" as="sourcePoint"/><mxPoint x="1120" y="1660" as="targetPoint"/></mxGeometry></mxCell><mxCell id="1359" value="" style="endArrow=oval;html=1;endFill=1;" parent="1" edge="1"><mxGeometry width="50" height="50" relative="1" as="geometry"><mxPoint x="1060" y="1720" as="sourcePoint"/><mxPoint x="1100" y="1680" as="targetPoint"/></mxGeometry></mxCell><mxCell id="1360" value="" style="endArrow=oval;html=1;endFill=1;" parent="1" edge="1"><mxGeometry width="50" height="50" relative="1" as="geometry"><mxPoint x="980" y="1800" as="sourcePoint"/><mxPoint x="1060" y="1720" as="targetPoint"/></mxGeometry></mxCell><mxCell id="1361" value="" style="ellipse;whiteSpace=wrap;html=1;fillColor=none;strokeColor=#4D9900;" parent="1" vertex="1"><mxGeometry x="1090" y="1670" width="20" height="20" as="geometry"/></mxCell><mxCell id="1362" value="a" style="text;html=1;strokeColor=none;fillColor=none;align=center;verticalAlign=middle;whiteSpace=wrap;rounded=0;" parent="1" vertex="1"><mxGeometry x="1070" y="1630" width="10" height="10" as="geometry"/></mxCell><mxCell id="1363" value="b" style="text;html=1;strokeColor=none;fillColor=none;align=center;verticalAlign=middle;whiteSpace=wrap;rounded=0;" parent="1" vertex="1"><mxGeometry x="1070" y="1665" width="10" height="10" as="geometry"/></mxCell><mxCell id="1364" value="с" style="text;html=1;strokeColor=none;fillColor=none;align=center;verticalAlign=middle;whiteSpace=wrap;rounded=0;" parent="1" vertex="1"><mxGeometry x="1120" y="1640" width="10" height="10" as="geometry"/></mxCell><mxCell id="1366" value="" style="endArrow=none;html=1;endFill=0;dashed=1;" parent="1" edge="1"><mxGeometry width="50" height="50" relative="1" as="geometry"><mxPoint x="1050" y="1650.0000000000005" as="sourcePoint"/><mxPoint x="1055" y="1645" as="targetPoint"/></mxGeometry></mxCell><mxCell id="1367" value="" style="endArrow=none;html=1;endFill=0;dashed=1;" parent="1" edge="1"><mxGeometry width="50" height="50" relative="1" as="geometry"><mxPoint x="1050" y="1650.0000000000005" as="sourcePoint"/><mxPoint x="1045" y="1645" as="targetPoint"/></mxGeometry></mxCell><mxCell id="1368" value="" style="endArrow=none;html=1;endFill=0;dashed=1;" parent="1" edge="1"><mxGeometry width="50" height="50" relative="1" as="geometry"><mxPoint x="1030" y="1650.0000000000005" as="sourcePoint"/><mxPoint x="1035" y="1645" as="targetPoint"/></mxGeometry></mxCell><mxCell id="1369" value="" style="endArrow=none;html=1;endFill=0;dashed=1;" parent="1" edge="1"><mxGeometry width="50" height="50" relative="1" as="geometry"><mxPoint x="1010" y="1650.0000000000005" as="sourcePoint"/><mxPoint x="1005" y="1645" as="targetPoint"/></mxGeometry></mxCell><mxCell id="1370" value="" style="endArrow=none;html=1;endFill=0;dashed=1;" parent="1" edge="1"><mxGeometry width="50" height="50" relative="1" as="geometry"><mxPoint x="1030" y="1650.0000000000005" as="sourcePoint"/><mxPoint x="1025" y="1645" as="targetPoint"/></mxGeometry></mxCell><mxCell id="1371" value="" style="endArrow=none;html=1;endFill=0;dashed=1;" parent="1" edge="1"><mxGeometry width="50" height="50" relative="1" as="geometry"><mxPoint x="1010" y="1650.0000000000005" as="sourcePoint"/><mxPoint x="1015" y="1645" as="targetPoint"/></mxGeometry></mxCell><mxCell id="1372" value="" style="endArrow=none;html=1;endFill=0;dashed=1;" parent="1" edge="1"><mxGeometry width="50" height="50" relative="1" as="geometry"><mxPoint x="990" y="1650" as="sourcePoint"/><mxPoint x="995" y="1645" as="targetPoint"/></mxGeometry></mxCell><mxCell id="1373" value="" style="endArrow=none;html=1;endFill=0;dashed=1;" parent="1" edge="1"><mxGeometry width="50" height="50" relative="1" as="geometry"><mxPoint x="990" y="1650" as="sourcePoint"/><mxPoint x="985" y="1645" as="targetPoint"/></mxGeometry></mxCell><mxCell id="1374" value="d" style="text;html=1;strokeColor=none;fillColor=none;align=center;verticalAlign=middle;whiteSpace=wrap;rounded=0;" parent="1" vertex="1"><mxGeometry x="925" y="1630" width="10" height="10" as="geometry"/></mxCell><mxCell id="1377" value="" style="endArrow=oval;html=1;endFill=1;" parent="1" source="1361" edge="1"><mxGeometry width="50" height="50" relative="1" as="geometry"><mxPoint x="1125" y="1665" as="sourcePoint"/><mxPoint x="1080" y="1660" as="targetPoint"/></mxGeometry></mxCell><mxCell id="1378" value="or" style="text;html=1;strokeColor=none;fillColor=none;align=center;verticalAlign=middle;whiteSpace=wrap;rounded=0;" parent="1" vertex="1"><mxGeometry x="940" y="1705" width="60" height="30" as="geometry"/></mxCell><mxCell id="1379" value="" style="endArrow=classic;html=1;rounded=0;dashed=1;dashPattern=1 1;strokeColor=#000000;elbow=vertical;" parent="1" edge="1"><mxGeometry width="50" height="50" relative="1" as="geometry"><mxPoint x="1020" y="1610" as="sourcePoint"/><mxPoint x="1040" y="1630" as="targetPoint"/></mxGeometry></mxCell><mxCell id="1380" value="2- pivot" style="text;html=1;strokeColor=none;fillColor=none;align=center;verticalAlign=middle;whiteSpace=wrap;rounded=0;" parent="1" vertex="1"><mxGeometry x="965" y="1555" width="60" height="30" as="geometry"/></mxCell><mxCell id="1381" value="" style="endArrow=none;html=1;rounded=0;dashed=1;" parent="1" edge="1"><mxGeometry width="50" height="50" relative="1" as="geometry"><mxPoint x="2070" y="1820" as="sourcePoint"/><mxPoint x="2080" y="1800" as="targetPoint"/></mxGeometry></mxCell><mxCell id="1382" value="" style="endArrow=none;html=1;rounded=0;dashed=1;" parent="1" edge="1"><mxGeometry width="50" height="50" relative="1" as="geometry"><mxPoint x="2055" y="1820" as="sourcePoint"/><mxPoint x="2060" y="1800" as="targetPoint"/></mxGeometry></mxCell><mxCell id="1383" value="" style="endArrow=none;html=1;rounded=0;dashed=1;" parent="1" edge="1"><mxGeometry width="50" height="50" relative="1" as="geometry"><mxPoint x="2060" y="1800" as="sourcePoint"/><mxPoint x="2080" y="1800" as="targetPoint"/></mxGeometry></mxCell><mxCell id="1384" value="" style="endArrow=none;html=1;rounded=0;dashed=1;" parent="1" edge="1"><mxGeometry width="50" height="50" relative="1" as="geometry"><mxPoint x="2165" y="1820" as="sourcePoint"/><mxPoint x="2160" y="1800" as="targetPoint"/></mxGeometry></mxCell><mxCell id="1385" value="" style="endArrow=none;html=1;rounded=0;dashed=1;" parent="1" edge="1"><mxGeometry width="50" height="50" relative="1" as="geometry"><mxPoint x="2150" y="1820" as="sourcePoint"/><mxPoint x="2140" y="1800" as="targetPoint"/></mxGeometry></mxCell><mxCell id="1386" value="" style="endArrow=none;html=1;rounded=0;dashed=1;" parent="1" edge="1"><mxGeometry width="50" height="50" relative="1" as="geometry"><mxPoint x="2140" y="1800" as="sourcePoint"/><mxPoint x="2160" y="1800" as="targetPoint"/></mxGeometry></mxCell></root></mxGraphModel></diagram></mxfile>